<svg xmlns="http://www.w3.org/2000/svg" viewBox="0 0 4626.81 3962.16"><defs><style>.a{fill:#fff;}.b{fill:#c6c6c6;}.c{fill:#fec700;}.d{fill:#ededed;}.e{fill:#dadada;}.f{fill:#3c3c3b;}</style></defs><path class="a" d="M329.16,3306.87C281.3,3661.52,591.78,3958.83,640,4005c333.73,319.58,790.86,301,1024,288,624.6-34.82,732.37-320.44,1584.95-663.93C4238.27,3230.48,4665.59,3384.44,4864,2997c157.88-308.29,95.48-812.27-144-1088-106.15-122.22-202.45-148.19-353-339.18-179.91-228.17-232.88-432.6-271-524.82C3864,483.05,2519.79,53.72,1584,565c-97.93,53.51-750,422.54-757.09,936.48-5.08,370.58,329.9,476.07,292.9,807.58C1068.45,2769.16,395.14,2817.81,329.16,3306.87Z" transform="translate(-324.16 -336.58)"/><path class="b" d="M886.92,1928.34c69-40.57,137.9-81.26,207.07-121.51l-23.8-30.07c-77.91,80.84-149.63,167.37-216.52,257.5-11.8,15.89,10.56,31.62,25,24.26l201.72-103-21.87-27.62L876,2147.53c-13.37,16.09,3.15,35.22,21.55,27.23,63.31-27.5,126.79-54.59,190.25-81.76l-22.33-28.2a1076,1076,0,0,0-183.62,212.66c-9.1,13.81,6.08,32.13,21.39,27.38a858.45,858.45,0,0,0,198.14-90L1075,2189.24q-74.21,99.93-148.43,199.85c-12.71,17.12,11.29,33.19,26.54,25.79A933.44,933.44,0,0,0,1116.71,2313l-31.09-23.15q-87.33,118.73-174.27,237.72c-12.6,17.24,11.38,34.56,27.13,26.36l234-121.89-23.54-29.73L927.44,2677.52c-12.81,15.91,3.28,40.33,22.89,28.91L1207.6,2556.6l-25.48-24.76a2589.48,2589.48,0,0,1-205.86,252.49c-13.78,14.89,4.77,41.39,22.66,28.63,59.92-42.73,124.43-74.73,194.95-95.95l-18.22-30.92q-111.21,108.18-211.2,226.83c-13.32,15.8,3.89,41.83,23.31,29.44l139.89-89.24-28.49-21.29a447.35,447.35,0,0,1-59.87,122.29c-11.85,17.15,14.21,34.54,28.13,21a464.14,464.14,0,0,1,111.45-80.46c20-10.37,2.3-39.39-17.45-29.3a495.11,495.11,0,0,0-119.33,85.23l28.13,20.94a478.32,478.32,0,0,0,66.42-129.82c5.37-16-14.75-30.09-28.49-21.29q-69.87,44.74-139.73,89.52l23.3,29.44q99.77-118.85,210.77-227.25c13.3-13-.26-36.37-18.22-30.92a693.82,693.82,0,0,0-204.15,100.22l22.66,28.63a2745,2745,0,0,0,211.58-260.08c11.34-15.8-10.57-33.41-25.48-24.77L931.33,2674.54l22.89,28.92L1176.46,2429c13.65-16.85-3.23-40.23-23.53-29.73L918.54,2520.49l27.13,26.37q87.28-118.76,174.14-237.8c14.5-19.87-15.41-35.34-31.09-23.14a880.65,880.65,0,0,1-155.09,96.22l26.54,25.79,148.15-200c11.8-15.93-11.07-35-26.33-25.59a815.8,815.8,0,0,1-188.48,86.3L914.9,2296a1071,1071,0,0,1,176.66-205.93c16.8-15.22-4.78-35.9-22.33-28.2-63.16,27.69-126.3,55.46-189.61,82.82L901.18,2172l182.9-219.28c13.06-15.66-3.18-37.12-21.86-27.62q-101,51.33-201.92,102.67l22.11,27.93c69.33-86.2,141.68-169.67,215.64-251.92,14.41-16-4.3-42.33-23.81-30.06Q972.6,1837.59,870.5,1900.76c-17.9,11.13-1.71,38.24,16.42,27.58Z" transform="translate(-324.16 -336.58)"/><path class="b" d="M1327.81,3253.71c52.14-31.56,104.51-62.77,156.37-94.8L1460,3135.36c-35.81,53.93-61.49,113.28-79.26,175.42-5,17.33,18.9,31.58,31.2,17.5,46.79-53.57,98.15-102.22,154.86-145.22l-27.64-11c7.71,37.81,1,71.74-19.39,104.45-11.4,18.29,15,37.16,29.67,22.09l148-152.25-31.77-17.83a880.65,880.65,0,0,1-67.11,166.4c-10.4,19.69,14,36.27,30,22.36l155.27-134.43-32.87-13.2c4.57,39.54,1.16,75.28-11.41,113.25-6.67,20.17,18.93,28.86,32.28,18.11q68-54.69,135.88-109.4l-32.28-18.11q-28.65,87.24-57.3,174.5c-5.81,17.74,20.19,32.86,32.27,18.11q65.86-80.43,134.07-158.87l-32.18-18.05-27.15,100c-5.07,18.7,18.71,31.19,32.14,18a742.3,742.3,0,0,1,176-128.08l-28.8-16.16A362,362,0,0,1,2084,3288.74c-6.71,19.28,19.05,29.57,32,18a878.62,878.62,0,0,1,141.52-103.62l-28-20.9-13.95,87.95c-2.44,15.44,12.74,30.15,27.95,20.88a308.13,308.13,0,0,0,74.59-63.08l-22.2,3,7.23,20.38c-13.89,17.37,10.29,41.21,24.8,24,21.14-25.07,17.12-60-13.52-75.57-6.93-3.52-16.67-3-22.2,3.05a303.5,303.5,0,0,1-67.83,56l28,20.88q7-44,14-87.94c2.49-15.65-12.69-29.91-28-20.9a928.55,928.55,0,0,0-149.44,109.56l32,17.94a391.07,391.07,0,0,0,22-135.33c-.18-15-16.08-22.84-28.8-16.17a779.09,779.09,0,0,0-184,134l32.13,18q13.61-50,27.2-100c4.84-17.8-19.4-32.73-32.18-18.05q-68.24,78.4-134.14,158.79l32.27,18.1q28.66-87.24,57.31-174.49c6.62-20.17-18.91-28.89-32.29-18.12q-67.94,54.7-135.87,109.41l32.27,18.11c13.35-40.47,17.65-80.63,12.7-123-2-16.75-19.64-24.69-32.87-13.2l-155.09,134.6,30,22.36a927.36,927.36,0,0,0,70.73-175.32c5.27-18.23-18.82-31.17-31.76-17.82q-73.93,76.21-147.86,152.42l29.66,22.08c25.49-41,32.86-85.33,23.19-132.51-2.25-11-18.32-18.05-27.64-11-59.32,45.09-113.5,95.09-162.41,151.33l31.2,17.51c16.73-59.85,41.91-114.51,73.93-167.65,8.81-14.63-9.57-33.72-24.24-23.55-50.23,34.83-99.93,70.45-149.85,105.73-11.67,8.25-1.23,26.54,11.29,19Z" transform="translate(-324.16 -336.58)"/><path class="b" d="M2841.68,1370.79c58.16-27.24,116.44-54.21,174.56-81.54l-22.31-21.68c-51.95,73.34-102.13,148-152.41,222.56-8.91,13.2,6,30.95,20.59,26.35a654.18,654.18,0,0,0,160.31-75.1l-22.57-28.51q-76.38,95.72-152.78,191.43c-12.09,15.14-.82,34,18.27,31l95.14-15.06L2942.05,1589l-117.31,150c-9,11.56-6.46,27,8.53,31.83,28.91,9.36,55.91,9.83,85.31,2.27L2896.65,1745q-51.27,78-102.31,156.11c-11.89,18.24,10.88,33.1,26.88,26.12l127.13-55.51-28.44-21.25c-10.44,39.92-27.72,75.54-53.73,107.67-12,14.86-.9,34.86,18.39,31.2q67-12.71,134-25.37l-23-22.66q-15.17,56.55-30.35,113.11c-4.08,15.2,13.76,29.76,27.6,20.62l137.15-90.5-27.52-10.91c12.32,32.28,11.67,62.28-1.91,94.11-6.89,16.14,14.8,27.12,27.35,20.44L3259.53,2018l-27.28-20.38q-6.32,40.35-12.62,80.71c-2,12.82,8.07,27,22.62,22.26l138.86-45.76-22.56-22.2a531.43,531.43,0,0,1-42.59,93.07c-7.42,12.84,5.25,32.35,20.66,26.44l185.6-71.1q-10.29-13.18-20.59-26.35-40.44,53.79-81,107.48c-9.39,12.45,6.43,32.13,20.73,26.52l166.28-65.3-22.86-22.49c-12.51,29-24.65,58.24-36.9,87.38-5.27,12.53,10.24,26.11,22.17,21.83,50.31-18.06,100.53-36.39,150.94-54.19l-20.67-20.33q-9.47,50.85-18.95,101.7c-2.41,13,11.57,27,24.37,18.21,41.15-28.29,82-56.94,123.38-84.94l-24-13.49c2.15,27.05-3.39,49.08-21,70.28-11.68,14.1,2.86,33.86,19.8,25L3932.94,2185l-25.72-14.43c2.38,28-4.43,49.69-24.18,69.95-13.39,13.75,5,39.11,21.26,26.85a1177.78,1177.78,0,0,1,155.36-99.55l-26.6-14.93c1.32,38.44-8.59,70-31.28,101-10.46,14.31,10.27,33.12,24.22,23.53q72.24-49.7,144.47-99.4c7.57-5.21,12-15.33,6.49-23.89-28.79-44.76-26.23-97.35,5.4-139.94,9.18-12.35-6.11-29.81-19.76-25.3-34,11.24-59,30.43-78.13,60.85l30.14,16.92c33.56-69,67.05-138,101.27-206.61,6.12-12.28-4.35-30.51-19.5-25-41.35,15.16-73.22,39.93-96.74,77.35-10.83,17.22,15.21,36.83,28.54,21.24a1059.77,1059.77,0,0,0,133.79-197c5-9.46,1.26-23.93-10.79-26-33.37-5.75-61.24,1.89-86.65,24.52l31.11,12.48c1-54.91,82.95-84.6,65.31-144.63-19-64.59-99.12-39.08-139.73-15.19l26.05,25.31,29.92-64.45c5.24-11.28,1.25-23.93-11.47-27.64a1296.51,1296.51,0,0,0-219-44.28q-54.33-6.13-109-7.17c-36.42-.67-77.67,4.07-104.21-26-4.57-5.18-12.78-6.46-19.15-4.86a834.65,834.65,0,0,1-255.11,23.61q9.59,9.54,19.19,19.06-.82-18.16-1.63-36.33c-.51-11.25-8.39-17.9-19.17-19l-85.26-9,16.47,28.36,19.08-43.78c6.71-15.38-4.34-31.23-21.6-27.65l-89.76,18.65,23.47,23.1,22.44-57.17c5.27-13.46-10.6-27.4-23.45-23.07l-84.54,28.5,21.46,27.47,31-54.4c10.05-17.61-9.77-33.3-26.19-25.45L3140,1369.41l26.1,25.36q17.29-28.27,34.61-56.55c7.9-12.9-2.53-27-16.22-28-55.12-3.65-106.57,6.3-157.17,28.07l22.41,28.31c20.72-18.35,34.22-39.31,43.47-65.35,6.79-19.12-18-26.85-30.43-17.07l-93.08,73.46c-17.94,14.16,7.53,37.7,25,24.18l93.86-72.7-30.43-17.08c-7.49,20.46-18.19,34.91-34.59,49.17-17.4,15.12,5,35.6,22.41,28.31,44.27-18.59,90.34-25.1,138.06-21.9l-16.23-28q-17.34,28.26-34.67,56.52c-10.72,17.45,10.13,33,26.09,25.36L3280,1344l-26.19-25.45-31.08,54.36c-7.88,13.78,5.39,32.87,21.46,27.47L3328.8,1372l-23.44-23.07-22.5,57.16c-5.76,14.65,10.82,25.72,23.48,23.1l89.8-18.55-21.6-27.65-19.13,43.77c-6.12,14,1.19,26.73,16.47,28.36l85.25,9.09-19.16-19,1.59,36.33c.47,10.92,8.38,18.39,19.18,19.06a880,880,0,0,0,265.72-24l-19.15-4.86c43.06,49.16,120.29,36.35,178.68,39.55,92.06,5,182.69,21.26,271.3,46.51q-5.73-13.82-11.47-27.65l-29.5,64.68c-7.48,16.39,8.67,35.69,26,25.31,16.62-9.93,68.2-39.18,83.24-10.11,10.1,19.53-14.62,42.86-25.32,56.23-19.83,24.75-38.68,48.5-39.09,81.54-.21,16.51,19.84,22.62,31.1,12.49,15-13.52,30.59-18.59,51.08-15.06q-5.39-13-10.78-26a1017.79,1017.79,0,0,1-128.11,189.7l28.54,21.25c18.2-29,42-49.68,74.2-62l-19.5-24.95c-33.29,69.1-67.3,137.83-101.25,206.61-9.91,20.07,18.22,35.64,30.14,16.92,14.31-22.48,31.36-36,57-44.32l-19.77-25.3c-38.9,51.77-40.55,120.64-5.64,174.92q3.24-12,6.49-23.89-72.24,49.71-144.43,99.48l24.21,23.53c25.79-35.3,37.61-74.47,36.08-118.13-.47-13.7-14.65-21.3-26.59-14.93A1140,1140,0,0,0,3883,2240.56l24.88,24.09c25.09-26.28,37-57.57,33.57-94-1.23-13-13.62-20.9-25.72-14.44l-128.31,68.59,19.81,25c22.39-27.58,32.9-57,29.81-92.69-1-11.07-13.25-20.89-24-13.48-41.13,28.27-82.7,55.88-124,83.87l24.36,18.21q9.81-50.76,19.63-101.53c2.25-11.62-7.71-24.84-20.66-20.33-50.43,17.54-101.05,34.55-151.56,51.84l20.34,26c13.33-30.42,26.76-60.79,39.82-91.32,5.4-12.62-10.61-27.35-22.86-22.5l-166.17,65.73,20.72,26.52q40.39-53.8,80.82-107.59c9.38-12.45-6.38-31.79-20.58-26.35l-185.64,71,20.67,26.45A582.22,582.22,0,0,0,3394.28,2042c4.52-13-9.8-26.39-22.55-22.2l-138.9,45.67,22.62,22.26,12.69-80.7c2.48-15.82-12.21-28.4-27.28-20.38l-131.7,70.06,27.35,20.44q24-56.22,2.19-113.26c-4-10.63-16.65-18.06-27.53-10.91l-137.25,90.31,27.6,20.62q15.26-56.54,30.5-113.06c4-14.67-9.38-25.21-23-22.66q-67.07,12.54-134.14,24.94,9.21,15.6,18.4,31.21c30.39-37.25,51.68-77.56,64.05-124.08,4.75-17.84-13.83-27.57-28.44-21.26l-127.41,55,26.88,26.11q51.27-78,102.22-156.16c9.55-14.64-6.29-32.15-21.93-28.07-22.77,5.94-42.46,5.07-64.83-2.1l11.58,27.92,116.8-150.36c11.46-14.76-7.51-29.68-21.43-27.43l-95.05,15.38,18.27,31q76.11-96,152.28-191.91c12.16-15.32-3.5-40.92-22.57-28.51a615.62,615.62,0,0,1-150.91,71.71l20.59,26.36c50.08-74.5,100.4-149,148.78-224.6,9.25-14.44-8.8-28.81-22.3-21.68-56.57,29.89-112.95,60.13-169.46,90.11-13,6.89-1.55,25,11.29,19Z" transform="translate(-324.16 -336.58)"/><path class="b" d="M2836.6,2414.19c46.58-12.23,93.62-23.38,139.78-37.12l-17.4-29.51c-34.65,36.79-69.38,73.51-103.83,110.49-14,15,4.51,40.93,22.74,28.72,62.51-41.84,128.41-77.38,198.12-105.72l-21.07-27A631.6,631.6,0,0,1,2901.62,2507c-19.78,13.9-2.69,43.35,19,31.86a1928,1928,0,0,0,234-146.52l-25.67-25a451,451,0,0,1-135.71,168.2c-16.89,12.94,5.07,39.48,22.54,28.48a1505.23,1505.23,0,0,1,213.79-111.86l-25.24-24.52q-49.28,72.34-98.44,144.78c-12.32,18.16,14.08,33.72,28.61,21.3,66.34-56.7,140.68-102.24,221.71-134.74l-19.74-25.25-127.63,181.89c-12.32,17.55,13.77,32.66,27.85,20.73,69.89-59.17,147.48-106.52,231.66-142.45l-26.1-19.5c-20.36,52.09-51.12,96.7-91.79,135-14.56,13.72,4.75,38.52,21.59,27.26a1214.94,1214.94,0,0,1,191.09-104.5l-24.48-23.79-85.77,134.86c-9.94,15.63,9.79,33,24.85,24.16l206.67-121.64-22.5-28.42-120.85,148.07c-12.35,15.12-.61,33.68,18.19,30.87,44.94-6.73,79.67-35.21,112.22-65,34.15-31.27,73.32-79.42,125-71.16l-11.35-27.36-92.59,146.91c-9.91,15.72,10.39,35.81,26,25.24q88-59.73,171.25-125.94l-29.72-22.13-77.79,137.81c-6.62,11.73,1.59,28.39,16,27.59,41-2.29,74.48-16.88,102.32-47.25l-30-7.63q8.8,19.52-5.54,34.11c-10.78,14.58,13.45,32.11,25.12,18.7,16.27-18.68,21.56-38,15.14-62.11-3.5-13.11-20.63-17-30-7.63-21.68,21.58-46.06,33.22-76.46,34.88l16,27.6,77.93-137.73c11.28-19.93-13.94-34.64-29.72-22.13q-79.53,63-163.57,119.82l26,25.24q46.38-73.41,92.75-146.82c6.07-9.61.66-25.44-11.34-27.37-113.88-18.31-155.25,121-257.14,136.56l18.19,30.87,120.39-148.52c12.62-15.56-3.31-39.8-22.5-28.42L3459.5,2636.77l24.85,24.15,85.31-135.13c10.52-16.67-9.73-30.26-24.48-23.79a1229.64,1229.64,0,0,0-191,104.63l21.58,27.26c45.29-42.72,78.24-92.52,100.86-150.48,6.38-16.36-13.92-24.7-26.09-19.49-87.06,37.21-166.69,87-238.88,148.16l27.86,20.73L3367,2450.86c8.37-11.93-5.83-30.84-19.73-25.25-87.26,35-166.73,82.41-238.52,143.18l28.61,21.3q49.53-72.23,98.91-144.52c11.7-17.13-10.5-30.77-25.23-24.53a1504.89,1504.89,0,0,0-214,111.58l18.7,31.41c62.67-47.88,111.89-107,145.65-178.45,7.17-15.18-9.21-36.94-25.67-24.95A1953.29,1953.29,0,0,1,2901.62,2507l19,31.86a686.28,686.28,0,0,0,166.94-166.45c9-12.69-6.27-33-21.07-27-72.9,29.67-142,65.86-207.44,109.69l22.74,28.73q51.66-55.52,102.84-111.46c11.68-12.68.39-35-17.39-29.51-46.14,14.18-91.56,31-137.22,46.69-15.71,5.39-9.81,29,6.61,24.65Z" transform="translate(-324.16 -336.58)"/><path class="c" d="M1735.44,2567.43q101-42.32,200.92-87.45l-24-30.35q-107.05,105.23-213.45,211.1c-17,16.91,4.8,42.7,25.1,31.71q169.69-91.87,332.72-195.16l-25.89-32.7Q1852.13,2620.69,1674,2777.36c-18.67,16.41,6.09,47.45,26.63,33.63l451.46-303.76-26.68-33.69A4010.69,4010.69,0,0,0,1679.65,2910c-19.28,22.06,9.45,47,31.27,30.28q216.9-166.43,433.83-332.81l-31.39-30.39L1703,2956c-18.45,17,6,48.23,27,34.13q207.54-139.5,415-279.14l-27-34.1L1836.4,2986.77c-16.27,17.9,5.17,48.47,26.91,34Q1992.07,2935,2120.66,2849l-29.56-28.73a473,473,0,0,1-115.6,155.93c-18.88,16.87,5.4,43.69,26,32.84,17.87-9.4,30.76-21.74,44.42-36.5,6.35-6.85,12.9-15.91,20.62-21.15,4.78-3.25,42.6-16,38.59,2.48-5.55,25.53,33.65,35.51,39.46,10.36,7.84-33.95-17.06-57-49.74-60.91-53.86-6.41-73.63,47.83-114.92,69.5q13,16.42,26,32.84a506.17,506.17,0,0,0,122.57-164.4c8.45-18-10.22-41.52-29.56-28.73q-129,85.35-258,170.7l26.91,34,281.69-309.83c16.31-17.94-5.23-48.73-27-34.1q-207.54,139.53-415,279.11,13.5,17.07,27,34.13l410.17-379.08c21.66-20-9.81-47-31.39-30.39Q1896.52,2743.59,1679.65,2910l31.27,30.28a4011.67,4011.67,0,0,1,445.67-436.54c19.14-16-6.19-47.48-26.68-33.69L1678.5,2773.9l26.62,33.63q178.19-156.6,356-313.62c18.23-16.1-5.7-45.62-25.89-32.7q-162.49,104-332.06,196.26l25.1,31.71q106.26-106,212.2-212.32c16.53-16.65-4.53-39.89-24-30.35q-97.85,47.85-194.45,98.3c-15.78,8.26-1.84,29,13.47,22.62Z" transform="translate(-324.16 -336.58)"/><path class="d" d="M952.43,3935.71c-39.32,13.44-87.2,44.43-73.66,83.71,9.88,28.67,46.1,36.4,76.28,39.29,525.31,50.34,1054.85,11.69,1580.23-38,594-56.16,1186.58-126.38,1779.1-196.6,64.84-7.69,134.62-17.61,181.71-62.85-60.59-45.1-138.3-58.79-213-69.87-857.17-127.13-1711.48-43.45-2563.85,77.9C1459.05,3806.34,1201.81,3850.45,952.43,3935.71Z" transform="translate(-324.16 -336.58)"/><path class="e" d="M1434.22,3963.07c92.65,42.07,195.36,58,297.08,60.75,418.44,11.26,819.67-192.05,1238.22-186.35,277.92,3.79,584.86,93.12,814.88-62.89-240.92-109.08-519.68-44.71-781.11-4.74-288.13,44.06-581.22,56.82-871.49,32.27-125.24-10.6-239.88-14-364.51,15.52C1713.81,3830.31,1455.11,3972.56,1434.22,3963.07Z" transform="translate(-324.16 -336.58)"/><path class="f" d="M2118.86,1116c-240.19-115.6-472.44,183.75-570.5,364.24-60.63,111.61-113.16,242.81-111.33,371.57,1.89,132.08,71.64,268.9,140.42,379,60.5,96.83,142.15,186.14,252.82,223.88,112,38.18,256.54,49.16,369.12,9,113.87-40.6,182.23-139,230.49-245.05,48-105.36,88.88-224.16,99.92-340,13.35-140.07-28.91-289.85-130.42-390.28-96.74-95.72-239-141.18-372-108-33.45,8.36-19.91,58.27,13.54,50.53,108.74-25.15,223.88,9.1,306.37,83.22,87.66,78.76,129.85,196.45,130.32,312.63.43,103-33.27,207.69-69.12,303.3-35,93.22-83.2,200.74-170.18,256.49-94.33,60.46-217.08,54.34-322.82,34.65-111.74-20.8-195-80.06-261.6-171.46-64.68-88.75-119.62-196.37-150-301.84-35.06-121.85-.65-246.81,47.4-360.24,48.85-115.34,115.65-226.23,202.86-316.67,90.32-93.66,219.42-180.21,353.81-129.93,14.48,5.42,25.12-18.19,10.82-25.07Z" transform="translate(-324.16 -336.58)"/><path class="f" d="M1763.86,2439.48c-57.66,62.8-86.66,155.95-110.54,236.54-25.62,86.42-45,181-43.21,271.52.52,27.18,45.34,35.16,49.77,6.43,13.29-86.34,23.21-171.86,44.63-256.8,21.07-83.56,61.46-163.74,76.67-248,1.7-9.46-9.87-17.83-17.32-9.72Z" transform="translate(-324.16 -336.58)"/><path class="f" d="M1623.58,2998.59c15,3.5,28.65,14.2,43.49,18.93,19.72,6.28,41,9.07,61.37,12.37,41.11,6.66,82.78,10.25,124.31,13.08,42,2.86,84.27,4,126.37,3.13,37.5-.72,80.85,3.39,114.21-15.46,18.12-10.24,11.8-33.47-5.18-40-34.84-13.49-79.19-3.68-116.13-2.71s-73.74,1.28-110.63.75-73.59-2.48-110.41-4.36c-20.88-1.06-42-2.66-62.87-2.78-19.53-.11-43.9,6.59-62.75,5-7-.59-8.67,10.47-1.78,12.08Z" transform="translate(-324.16 -336.58)"/><path class="f" d="M2152.79,2985.94c27.49-75.56,29.75-159.9,37.38-239.32,8-83,21.11-170.37,17.48-253.79-1.26-29-47.72-38-53.54-6.91-15.34,82-15.17,169.24-19.29,252.45-4,81.42-13.92,167.28,3.14,247.62,1.68,7.91,12.48,6.41,14.83,0Z" transform="translate(-324.16 -336.58)"/><path class="f" d="M2285.52,1801.45c-36.43,23.26-32.68,89.64-8,120.63,12.24,15.37,34.23.81,35.86-14.68,1.87-17.61-4.23-35.43-5.5-53-1.39-19.17-.14-33.91-11.5-50.23-2.36-3.39-7.08-5.11-10.85-2.7Z" transform="translate(-324.16 -336.58)"/><path class="f" d="M2000.75,1833.08c-4.78,7.91-11.72,11.61-14.55,21.66-3.13,11.13-2.62,22.75-1,34.07,3.11,22.51,12.3,45.69,31.82,58.45,17.56,11.48,40.7-7.59,35.63-26.86-3.9-14.83-13.35-27.22-17.39-42.19-1.88-7-2.92-14-4.23-21a48.46,48.46,0,0,0-2.68-10.23c-.87-2-4.46-5.84-4.65-7.88-1.11-11.66-16.28-16.94-22.9-6Z" transform="translate(-324.16 -336.58)"/><path class="f" d="M1388.85,3122.8c74.57,28.75,158.33,37.2,237.29,46.2a2264.61,2264.61,0,0,0,252.68,14.48c84.29.13,168.71-4.71,252.54-13.29,78.67-8.06,166.46-13,241.52-38.54,26.5-9,25.3-52.91-6.35-51-83.37,5.1-166.74,27-250.15,35.54-78.73,8-157.71,12.1-236.83,13.32s-158.13-.84-237-5.79c-83.29-5.23-167.44-20.69-250.85-20.18-11.81.07-13,15.29-2.83,19.23Z" transform="translate(-324.16 -336.58)"/><path class="f" d="M2386.84,3107.49c-48.11,66.92-58,148.68-36.21,228l27.78-35.07a4927.93,4927.93,0,0,1-529.59,32c-177.47,1.08-353-15.45-530-23-27.51-1.17-35.64,43.6-7.11,48.32,173,28.6,353.26,31.14,528.27,30.58,179.67-.58,359.16-11.82,537.63-32.4,17.43-2,33.11-15.76,27.78-35.07-18.88-68.31-17.34-137.54-1.76-206.52,2.38-10.54-10.94-15-16.83-6.79Z" transform="translate(-324.16 -336.58)"/><path class="f" d="M1317,3329.64c15.08-52-4-190.14,81.8-181.12,30.92,3.26,35-42.38,7.55-51.27-45.35-14.68-88.75,13.12-110.37,52.92-29.42,54.15-7.74,119.06-3.37,176.32,1,13.46,20.38,17,24.39,3.15Z" transform="translate(-324.16 -336.58)"/><path class="f" d="M1295.35,3230.38c-46.4-1.39-90.73-25.35-120.29-60.69-14.79-17.68-26.32-38.78-32.1-61.15-5.1-19.77-2.68-40.17-8.2-59.7-4.67-16.54-28.13-19.35-36.79-4.53-29.19,49.92,7.23,122.11,42.54,159.57,41.93,44.51,98.34,64,158.15,53.09,15.71-2.85,11.8-26.14-3.31-26.59Z" transform="translate(-324.16 -336.58)"/><path class="f" d="M1312.1,3182.32a217.55,217.55,0,0,1-70.45-69.88c-17.23-27.75-21.37-57.88-32.71-87.68-8.65-22.74-38.22-17.68-41.57,5.45-11.41,78.74,68,151.68,136.49,171.21,11.59,3.3,18.44-12.84,8.24-19.1Z" transform="translate(-324.16 -336.58)"/><path class="f" d="M1085.6,1749.69a433.45,433.45,0,0,0-167.37,58c-23.82,14.2-47.85,30.67-68.36,49.4-24,21.93-16.16,42.93-13,73.76,12.87,123.86,26.58,247.63,39.88,371.45q17.41,162,34.87,324c6.81,62.5,14,124.95,21.2,187.39,8,69.89,9.32,143.08,38,207.57,7.69,17.3,37.7,8.46,36.55-9.8-12.31-194.4-40.87-389.8-61.83-583.94-19.8-183.36-34-368.67-62.71-550.87l-6.67,24.14c59.25-62.1,131-100.9,212.55-125.71,13.4-4.08,12.26-27.31-3.16-25.37Z" transform="translate(-324.16 -336.58)"/><path class="f" d="M990.91,3023.2c27,8.15,71.54,5,105,3.4,43.52-2,89.51-.63,131.74-12,32.33-8.72,23.5-50.85-6.76-54.18-40.75-4.49-83.57,3.65-124.19,8-31.68,3.41-73.09,2.8-102.45,15.17-21.35,9-38.53,44.83-6.82,51.71,7.92,1.72,11.41-9.71,3.46-12.11Z" transform="translate(-324.16 -336.58)"/><path class="f" d="M1262.91,2944.43c-1.49-27.9,8.8-56.38,8.72-84.65-.06-26.08-.52-52.2-1.77-78.25-2.15-44.94-5.19-89.92-8.49-134.8-5.92-80.52-12.82-161-21.49-241.26q-12.51-115.81-28.51-231.21-9.6-70-20-139.86-5.22-35.14-10.65-70.25c-1.43-9.12-18.12-80.89-16.48-82.53l-28,7.51,3.74.93-19.83-19.53c.21-2.17.43-4.34.64-6.52l34.35-19.31-2.89-.46c-34-5.38-49.85,41.79-14.92,52.33l2.77.83c15.1,4.56,29.19-5.71,34.35-19.31,11.88-31.34-24.1-55.47-49.9-36.43-35.34,26.09-6,103.46-.73,137.74,16.93,110.48,33.71,221,47.62,331.9,12,95.77,22,191.81,31,287.92q7.52,81,15,162c2.5,27.59,5.67,55.07,9.25,82.54,4.45,34.1,20.07,67.17,23,100.71.73,8.31,13.76,8.45,13.32,0Z" transform="translate(-324.16 -336.58)"/><path class="f" d="M1718.92,3426.87c-67.59,45.81-122.4,110.65-171.79,175-49.91,65-108.53,141-134,219.77-8.59,26.63,29,38,43,17.36,22.11-32.4,37.59-70.07,57.2-104.19q31.32-54.53,67.63-106c46.73-66.21,102.46-124.7,150.83-189.46,5.7-7.63-5.51-17.59-12.93-12.56Z" transform="translate(-324.16 -336.58)"/><path class="f" d="M1348.28,3881c-8.11-31.54-42.2-42.72-70-27.24-34,18.95-45.59,63.7-40.53,99.66,12.82,91.08,117,136.31,189.54,77.84,67.48-54.36,68.49-194.14-36.28-208.63-34.47-4.76-74.45,35.22-41.55,64.78,25.11,22.56,65.67-7.94,46-37-14.31-21.14-44.1-2.9-34.36,19.88l2.16,5,.06-20.06c-1.76,3.35,34.78,26.4,40.06,32.06,7.71,8.25,14,17.28,17.19,28.15,4,13.71,2.68,27.72-2.22,41-10.44,28.31-37.51,54.31-69.15,54.16-29.45-.14-53.31-22.91-65.17-48.32-5.83-12.49-9.39-26.33-8.81-40.19a60.28,60.28,0,0,1,7.4-27.22c5.72-10.39,38.78-51.09,50.28-9.85,2.69,9.64,17.86,5.59,15.36-4.12Z" transform="translate(-324.16 -336.58)"/><path class="f" d="M1964.56,3438.65c25.4,67,74,127.19,106.81,191.1,35.53,69.24,58.36,142.8,90,213.39,12.64,28.16,56.4,7.54,49.76-20.63-17.75-75.33-59.07-150.66-97.9-217-35.49-60.65-78.28-134.8-137.21-175.52-5.21-3.61-13.84,2.49-11.5,8.67Z" transform="translate(-324.16 -336.58)"/><path class="f" d="M2163.8,3926.67c-36.08,32.93-39.74,81.94-13.21,123.41,27.78,43.44,83.28,55.35,129.3,36.07,46.87-19.64,78.89-68.29,67.75-119.79-11.67-54-66.61-100.26-122.92-88.33-23.52,5-25.44,43.7-.42,47.92,30.95,5.22,60.75,16.2,69.14,50.35,7.21,29.36-14,56-41.37,64.59-59.18,18.61-88.39-58.25-69.88-103.9,4.45-11-11.21-16.87-18.39-10.32Z" transform="translate(-324.16 -336.58)"/><path class="f" d="M2094.43,3028.78c75,8.64,151.9,10.14,227.32,13.47,33.28,1.47,75-4,106.8,7.45,40.21,14.47,42.57,72.79,49.5,108.91,28.4,148.06,32.25,299.46,15.24,449.11-1.69,14.88,13.74,26.76,27.17,27,38.29.64,77.66,5.07,115.77,1.19,26.86-2.74,40.33-47.07,7.58-51.52-40.48-5.5-81.81-2.9-122.62-3.58l27.16,27c19.61-172.46,13.26-354-30.83-522.62-19-72.58-68.23-90.37-138.25-90.21-94.28.21-190.5-1.15-284.47,6.75-17.79,1.5-18,25-.37,27.09Z" transform="translate(-324.16 -336.58)"/><path class="f" d="M2128.77,2978.39c98.19-13.84,194.47-21.73,293.75-21q34.49.24,68.93,2.18c31.87,1.8,60.13.82,68.48,38,4.55,20.22-.48,47.94-.44,69q.09,39.06,1.11,78.12c1.23,46.86,3.74,93.69,7.19,140.44,2.68,36.38,3.69,75,16.95,109.4,19.84,51.47,91.39,100.9,140.05,53.85,18.95-18.33-1.09-44.93-24-40.66-95.7,17.89-79.77-156.44-82.49-216.13-2.14-46.84-3.59-93.71-3.91-140.6-.24-34.6,7.39-79.19-14.56-109.2-16.88-23.08-44.24-28.73-71.11-30.66-45.08-3.23-91.21-1-136.25,1.83-89.38,5.67-182.31,23.92-267.42,51.73-9.12,3-5.42,15.07,3.69,13.78Z" transform="translate(-324.16 -336.58)"/><path class="f" d="M2847.4,2310.75c-23.89,35-40.68,72.74-58.54,111.13-13.38,28.74-32.05,59.43-36.67,91.28-8,54.77,32.66,87.54,79.94,103.93,75.55,26.19,158.27,37.84,236.24,55.12,82.15,18.2,164.26,36.64,246.48,54.55,167,36.35,333.68,76.59,501.48,108.8,70.92,13.61,109.72-12.32,140.76-75.56,32.55-66.3,52.34-136.44,62.74-209.39,4.37-30.59-50.06-37.39-54.54-7.05-9.68,65.46-27.56,129.59-57.05,189-5.54,11.16-10.85,23.51-18.54,33.36-15.94,20.43-34.44,17-57.55,14.16-31.86-4-64.2-13.74-95.6-20.46q-203.15-43.49-406.28-87c-132.81-28.32-265.68-56.78-398.82-83.49-46.76-9.38-149.52-12.56-133.3-83.57,14.78-64.66,52.56-122.47,66.55-187.9,2.28-10.64-11.33-15.73-17.3-7Z" transform="translate(-324.16 -336.58)"/><path class="f" d="M2895.17,2306.64l-2.75-1.1,5.13,12.38c5.92-7.91,122.39,26.57,136.2,29.78,42.86,10,85.59,20.49,128.23,31.35,90.39,23,180.13,48.64,270.65,71.11,173,43,354.92,90.86,533.71,99.54,32.6,1.58,42.12-51.59,8.41-57.19-102.15-17-204.62-28.6-306.32-49s-202.44-45.05-304-65.82c-99.24-20.29-198.09-42.27-297.72-60.69-47.11-8.7-94.55-18.09-142.23-23.09-17.24-1.81-43.31-4.94-43,19.79a8.6,8.6,0,0,0,10.85,8.18l2.77-.74c7.9-2.14,6.8-11.85.13-14.52Z" transform="translate(-324.16 -336.58)"/><path class="f" d="M2920.79,2425.86c12.33,10.37,26.49,18.39,40.3,26.61,14.27,8.48,27.69,19.89,44.92,19.59,14.66-.25,28.47-17.71,18.68-31.46-10.44-14.65-25.73-18.19-41.82-24.81-15-6.17-30.19-13.23-46-16.92-14.54-3.37-29.29,15.82-16,27Z" transform="translate(-324.16 -336.58)"/><path class="f" d="M3098.62,2484.55c13.65,3.65,28.28,6.68,42.36,5.22,13.26-1.37,26.84-10.48,26.34-25.42-.5-15.18-11.38-24-25.65-25.48s-29,1.61-42.68,5.26c-20.29,5.4-20.92,34.91-.37,40.42Z" transform="translate(-324.16 -336.58)"/><path class="f" d="M2947,2521.61c21.64,17.2,51.84,28.06,78.17,35.62,22,6.29,39-28.35,16.38-38-25.49-10.85-55.79-22.21-83.84-22.6-11.76-.16-21.22,16.59-10.71,25Z" transform="translate(-324.16 -336.58)"/><path class="f" d="M3150.71,2603.16c14.95-7.89,29.37-8.08,45.62-4.94,12.48,2.42,25.7-3.65,29.36-16.51,3.32-11.66-4-26.13-16.51-28.54-29.36-5.69-57.66,3.65-80.9,21.66-17.29,13.41,4.91,37.57,22.43,28.33Z" transform="translate(-324.16 -336.58)"/><path class="f" d="M3288.82,2518.23c32.48,3.45,58.28,12.2,87.72,26.13,19.87,9.4,45.93-16.76,25.94-33.16-31.76-26.08-77.68-36.24-117.83-26.46-20.2,4.92-14.35,31.53,4.17,33.49Z" transform="translate(-324.16 -336.58)"/><path class="f" d="M3380.45,2617.86c16.23-4.52,29.39,3.86,37.48,17.46,14.64,24.62,49.79,3,38.57-22.32-14.57-32.82-59.44-42.11-89-25.77-17,9.38-5.64,35.8,12.94,30.63Z" transform="translate(-324.16 -336.58)"/><path class="f" d="M3554.09,2583.16c9.62,2.79,20.14,3.64,30.09,4.65,10.51,1.06,20.29-2.29,30.46-4.45,20.69-4.41,21.34-36.65.37-41.14-10.08-2.17-19.73-5.48-30.15-4.41-10.09,1-20.66,1.88-30.41,4.69-20.39,5.88-21,34.66-.36,40.66Z" transform="translate(-324.16 -336.58)"/><path class="f" d="M3580.25,2687.85c24,6.2,48,13.08,72.08,18.86,31.73,7.6,40.55-40.67,6.56-44.62-24.52-2.85-49.24-4.61-73.82-7-19.21-1.89-23.24,28-4.82,32.79Z" transform="translate(-324.16 -336.58)"/><path class="f" d="M3785.43,2745.47c9.43,8.31,20.81,15.42,33.89,14.84,14.91-.66,30-11.72,29.38-27.86-.5-12.45-11-22.61-22.58-26-14.17-4.11-28.68,6.35-28.67,21.18,0,20.52,29.49,23.55,35.45,4.57q-3.22,9.06-14.92,10.31-11.08-3.89-6.76-1.52-4.16-3.32-2-1.34-3.18-4.29-1.49-1.85,1.59,3-.55-3.13-1.12-6.32-1-3.11a61.24,61.24,0,0,0,.75,6.34,14.8,14.8,0,0,1,.07-7.62,13.08,13.08,0,0,1,5.77-8.2,8.54,8.54,0,0,1,4.91-1.16c-1.07.79-5.57-1.17-1.05.15-2.11-.62-4.21-1.19-6.3-1.9,3.6,1.23-2.46-1.19-3.15-1.53-8-4-17.53-2.39-23.12,4.78-5.16,6.6-5.3,17.14,1.38,23Z" transform="translate(-324.16 -336.58)"/><path class="f" d="M3270.73,2328.9q-.33,6.15-.64,12.31c-.44,8.48,13.75,8.35,13.32,0q-.33-6.15-.64-12.31c-.4-7.62-11.65-7.6-12,0Z" transform="translate(-324.16 -336.58)"/><path class="f" d="M3285.73,2355.6c10.16-24.12,19.7-48.69,30.92-72.34,9.53-20.11,23.46-38.73,29.2-60.21,6.6-24.67-31.28-41.25-42.55-17.17-10.26,21.92-12.1,46.64-18.49,70-6.75,24.72-14.91,49.09-22.5,73.56-4.75,15.29,17.69,19.76,23.42,6.14Z" transform="translate(-324.16 -336.58)"/><path class="f" d="M3368.91,2204.61c28.87,19.7,62.71,33,96.21,42.7,30.29,8.75,70.14,20.89,100.22,8.46,20.77-8.59,22.82-34.77.39-43.08-27.25-10.09-59.47-2.94-88.39-5.23-34.78-2.76-67-12.37-100.49-21.26-11.49-3-17.31,12-7.94,18.41Z" transform="translate(-324.16 -336.58)"/><path class="f" d="M3584,2243.87c-8.94,9.8-21.66,15.7-28.91,27-6.6,10.27-9.57,23.7-11.6,35.48-4.25,24.69-3.8,56.34,14.61,75,14.92,15.14,38.76,2.58,40.46-16.57,1.54-17.45-6.68-34.27-6.47-52.19.11-8.77,1.92-17,2.86-25.66,1.15-10.51-1.42-22.23,3.92-32,5-9.18-7.52-19.13-14.87-11.07Z" transform="translate(-324.16 -336.58)"/><path class="f" d="M3313.41,2201.11c26,0,26.83-39.87.54-39.87-26,0-26.83,39.87-.54,39.87Z" transform="translate(-324.16 -336.58)"/><path class="f" d="M3318.45,2173a1357.73,1357.73,0,0,0-261.68-114.16c-88.22-27.88-190.86-55.85-284.18-46.45-24.88,2.5-36.89,42.26-7,47.32,90.77,15.37,183.11,14.67,273.81,33.44,94.2,19.5,184.62,51.24,271.25,92.92,8.63,4.16,16.46-8.13,7.77-13.07Z" transform="translate(-324.16 -336.58)"/><path class="f" d="M2763.28,1976.77l38.18-4.84c7.08,1.85,17.53-2.43,18.73-10.53,16.32-110.52,15.61-224.74,24.35-336.15,4.53-57.82,10.22-115.56,17.61-173.08,7.35-57.23,21.81-114,27.2-171.33,2.88-30.53-42.85-32.95-51.53-6.66-17,51.5-22.21,108.6-29.34,162.27-7.63,57.45-12.71,115.13-16.32,173-7.13,114.1-13.6,234.24-1.79,348.14l11.35-14.32c-16.56,4.27-31.16,12.41-45.24,22.12-7.11,4.91-.71,16,6.8,11.42Z" transform="translate(-324.16 -336.58)"/><path class="f" d="M2889.25,1302c48.16-36.21,113.31-24.28,168.39-14.51,62.34,11.06,124.57,22.65,186.94,33.51q183.68,32,366.6,68.13,183.12,36,365.08,77.72,92.92,21.24,185.47,44.15c54.81,13.56,121.19,42.52,177.79,37.11,25.21-2.41,34.32-31.17,13.08-46.16-27.79-19.61-63.72-25-96.22-33.31q-46.2-11.76-92.53-23-96.48-23.49-193.4-45.19-197.76-44.28-397.31-79.83c-127.36-22.81-255.56-42.7-384-58.16-100.6-12.11-223.25-41.43-309.14,27.79-6.73,5.42,2.38,16.9,9.28,11.72Z" transform="translate(-324.16 -336.58)"/><path class="f" d="M4367,1569.82C4305.3,1675.88,4274,1807,4244,1925c-15.29,60.12-28.41,120.82-40.21,181.71q-8.86,45.67-16.55,91.56c-2,11.95-6.67,81.6-19.17,83.84-23.9,4.29-24.08,42.16-.42,46.95,60.85,12.31,67-57.93,73.62-100.65,11.14-71.57,24.09-142.83,39.31-213.66s32.62-141.07,50.2-211.33c18.67-74.61,45.23-149.31,56.52-225.41,1.74-11.71-13.63-19.74-20.34-8.21Z" transform="translate(-324.16 -336.58)"/><path class="f" d="M4119.23,2316.86c-84.12-16.57-170.56-22.26-255.57-32.86-43.11-5.37-86.2-11-129.3-16.47-44.66-5.67-92.36-16.69-137.24-11-19.59,2.48-37.44,33.1-12.35,43.58,75.49,31.55,172.9,30.27,253.87,37.11,91.19,7.7,184,18.22,275.55,13.92,18.88-.88,25.89-30.15,5-34.26Z" transform="translate(-324.16 -336.58)"/><path class="f" d="M2990.68,1427.87c-12.21,78.71-21.31,156.73-39.08,234.57-17.73,77.66-47.3,153.2-62.83,231-4.84,24.23,30.14,41.49,42.32,17.07,35-70.26,50-155,61.68-232.2C3005,1597.55,3013.32,1511.6,3007,1430c-.66-8.6-14.83-11.85-16.34-2.11Z" transform="translate(-324.16 -336.58)"/><path class="f" d="M2920,1935.27c189.78,14.21,370.28,40.62,550.54,103.93,84.48,29.67,167.92,62.18,251.58,94,88.81,33.83,181.32,77.77,274,98.9,27.76,6.33,47.85-32.73,20.45-47.4-81.35-43.52-176.67-70.14-263.22-102-91.37-33.6-182.5-68.63-275.24-98.29-178-56.92-370.88-92.39-557.82-67.78-11.74,1.55-12.78,17.62-.25,18.56Z" transform="translate(-324.16 -336.58)"/><path class="f" d="M4020.31,2210.25c35.44-90,53.43-187.28,70.31-282.25,7.74-43.53,14.7-87.18,20.48-131,6-45.23,16.48-93.69,10.1-139.07-3.38-24.11-38.14-18.83-44.49.15-13.67,40.82-12.81,88.4-18,131-6.05,49.93-12.58,99.82-20.31,149.52-13.91,89.47-34.2,178.27-43.75,268.3-1.67,15.69,20.78,15.63,25.64,3.32Z" transform="translate(-324.16 -336.58)"/><path class="f" d="M3039.41,1435.12c187.6,33.24,376.77,57.58,565.23,85.49,93.21,13.81,186.44,27.56,279.57,41.89,45.28,7,90.59,13.76,135.88,20.7,41.69,6.39,94.85,5.84,128.31,34.33,20.14,17.16,46.65-4.18,36.26-27.68-12.78-28.9-44-38.88-73-44.43-49.34-9.43-99.34-16.32-149-24.09q-151.08-23.65-302.86-43c-205.12-26.29-411.17-51.45-617.86-60.48-9.84-.43-12.7,15.46-2.54,17.26Z" transform="translate(-324.16 -336.58)"/><path class="f" d="M2658.79,2512.93c2.5,71.25.29,142.91-4.46,214-.62,9.24,6.86,17.42,15.3,19.84,140.62,40.25,291.31,58.67,436.1,77.43q219.46,28.42,440.65,38.51c298,13.14,597.34,2.22,893.4-34,49.65-6.08,134.52-.27,142.55-65.34,4.78-38.73-4.08-82.19-6.62-121.08-2.92-44.81-5.64-89.63-8.45-134.44-.93-14.81-11.07-24.57-25.84-25.65a2436.47,2436.47,0,0,0-272.25-5.17c-85.63,3.28-178.59,4.44-261,29.62-22.73,7-19.72,41.21,5.16,41.37,87.43.55,175.45-16.36,263.1-19.65a2401.84,2401.84,0,0,1,264.25,5.09l-25.83-25.66c4.36,68.53,8.73,137.05,12.68,205.61.56,9.6,6.88,35.54,2.09,43.93-7.13,12.49-29.34,10.33-42,12q-55,7.06-110.1,13-204.72,22.46-410.75,29.33c-271.73,9.07-544.25-2.38-814.41-32.82-158.31-17.84-313.81-51-471.46-71.68l15.3,19.84c-4.22-71.57-10.81-142.7-17.73-214.05-1.19-12.22-20.17-12.61-19.72,0Z" transform="translate(-324.16 -336.58)"/><path class="f" d="M2657.75,2464.12c8.69,2.09,14.09,6.4,23.29,8,8.83,1.53,17.81,1.8,26.74,2.24,21.38,1.05,42.51,2.33,63.9,1.34,30.86-1.44,31.94-45.94.65-47.4-20-.93-39.71.15-59.68,1.13-8.59.42-17,.83-25.59,1.75-11.72,1.26-18,6.09-29.09,8.73-12.16,2.91-12.54,21.24-.22,24.2Z" transform="translate(-324.16 -336.58)"/><path class="f" d="M2777.21,2797.29c-5.69,77.89,13.21,161,19.3,238.83,5.85,74.69,10.14,149.52,11.72,224.42s.83,150-2.12,224.85q-2.21,56.18-6.29,112.27c-2.25,30.91,4.67,95.77-27.81,113.09-29.52,15.74-3.45,54.53,25.28,42.45,60.45-25.43,53.34-118.54,56.83-171.51,6-90.84,8.39-181.9,6.42-272.92-1.91-88.35-6.9-176.75-16.56-264.6-9.06-82.43-13.43-175.58-46-252.45-4.58-10.8-20.09-4-20.78,5.57Z" transform="translate(-324.16 -336.58)"/><path class="f" d="M3036.35,2858.47c-8.56,85,2.47,175.09,6.05,260.32,3.48,83.05,3.69,168.22,15.42,250.56,4,28.05,48.55,20.17,49.12-6.45,1.86-86.21-9.16-174.43-16.12-260.33-6.6-81.53-6.49-168.14-24.49-248-3.94-17.48-28.39-11.87-30,3.94Z" transform="translate(-324.16 -336.58)"/><path class="f" d="M4406.72,2866.49c-18,24.47-16.27,56.11-18.28,85.53-2.6,38.1-4.57,76.25-6.31,114.4-3.23,70.79-5.88,141.62-8.38,212.44s-5,141.63-7.51,212.45c-2.63,74.5-12.93,154.81-3.89,228.79,3.18,26,45.33,37.73,51,6.6,12.93-70.68,8.54-147.22,10.26-219q2.65-110.31,5.3-220.62c1.77-73.53,3.42-147.08,4.43-220.62.52-38.13.82-76.27.48-114.4-.26-29.34,3.37-60.5-13.41-85.71-3.49-5.24-10.2-4.64-13.72.13Z" transform="translate(-324.16 -336.58)"/><path class="f" d="M4151.1,2879.53c-15.1,87.3-17.45,178-23.05,266.3-5.85,92.35-15.5,186.31-13.32,278.86.85,35.85,52.05,34.32,55.58.06,9.22-89.43,7.24-181.05,8.71-270.9,1.47-89.64,6.75-181.57-1.53-270.91-1.27-13.76-23.65-19.25-26.39-3.41Z" transform="translate(-324.16 -336.58)"/><path class="f" d="M2209.41,2495.68c62.9,54.94,135.86,99.65,204.22,147.45,63.2,44.19,130.31,106.38,205.73,128.28,71.9,20.88,129.62-20,186.77-58.35,75.29-50.54,152-99.64,225.16-153.19,27-19.72,2.92-62.74-26.56-44.6-68.1,41.89-133.85,88-200.19,132.62-60.12,40.44-118.9,96.26-195,62.65-63.31-28-120.61-74.86-178.28-112.71-66.07-43.38-131.29-91.87-201.68-128-15.66-8-35,12.85-20.19,25.82Z" transform="translate(-324.16 -336.58)"/><path class="f" d="M2203.55,2415.87c64.92,32.39,132.27,60.44,198.91,89.1,59.43,25.57,119.81,56.56,182.33,73.77,122.53,33.72,187.4-64.1,291-103.6,31-11.8,20-59.28-13.34-49.8-46.09,13.11-83.09,42.69-122,69.33-52.81,36.16-100.08,50-163.45,31.27-123.81-36.58-242.44-90-366.56-126.17-9.42-2.74-16.21,11.48-6.94,16.1Z" transform="translate(-324.16 -336.58)"/><path class="b" d="M1265.33,3965.26c25.82-17.37,50.69-29.83,81.82-34.49l-17.3-17c-4.25,25.44-13.69,48.39-30.63,68.05-12.46,14.46,3.06,31.68,19.48,24.6q28.65-12.36,57.12-25.09l-25.25-14.17c1.17,11.44-1.93,18.47-8.49,27.69-11.11,15.6,12.11,28.29,24.52,18.25,14-11.33,19.6-28.27,17.61-45.91-1.5-13.27-13-19.76-25.25-14.16q-28.29,13-56.42,26.26l19.47,24.6c20.63-25.74,32.69-53.58,35.78-86.51.9-9.65-9.68-15.26-17.83-13.45-32.12,7.16-63.9,21.79-87,45.73-7.83,8.11,2.54,22.24,12.37,15.63Z" transform="translate(-324.16 -336.58)"/><path class="b" d="M2171.93,3997.21c8.1-18.66,31.84-42.51,53.67-27.24,13.75,9.62,14.44,33-.93,41l25.14,24.43c7.34-13.07,18.8-16,29.32-25.34,8.2-7.28,4.6-23.69-6.82-25.47-23.64-3.66-43.11,13.33-54.31,33-9.41,16.51,9.35,32.64,25.14,24.43,36.63-19.07,37.28-76.23,3.33-98.58-37.44-24.66-88.81,7.6-93.15,49-1,9.62,14.78,13.66,18.61,4.85Z" transform="translate(-324.16 -336.58)"/><path class="f" d="M1761.89,1876.07c25,134.3,98.09,286.44,238.09,330.22,121.27,37.93,280.68-12.3,342.62-127.74,15.45-28.81-24.58-48.71-42.87-24.06-68.47,92.26-184.23,143.61-297.71,105-126.47-43.09-187.11-169.11-225.26-287.36-3-9.3-16.64-5.51-14.87,4Z" transform="translate(-324.16 -336.58)"/><path class="f" d="M1849.86,1398.24c51.31-60.2,130.69-99.57,205.61-121.62,83-24.43,164.71-15.34,236.48,34.18,22.12,15.26,48.19-18.54,29-37.14-135.27-131.43-403.86-37.21-490.63,110.06-7,11.86,10.31,25.29,19.5,14.52Z" transform="translate(-324.16 -336.58)"/><path class="f" d="M1493.7,1800.39c-40.17-7.59-80.44-14.43-119.71.88-36.28,14.15-62.39,44.91-67.62,83.82-11.24,83.58,83.79,151,155.88,99.43,18.33-13.13,8.2-48.84-16.51-39.09-48.08,19-112.5-11.41-90.67-71.57,17.82-49.1,92.39-51.28,135.62-53,11.3-.45,15.45-18.11,3-20.46Z" transform="translate(-324.16 -336.58)"/><path class="c" d="M3170.27,1809c60.35,16.89,121.36,30.8,182.49,44.52,54.48,12.22,108.53,24.73,163.55,8.57,56.66-16.63,110.66-47.23,164.17-71.74,59.22-27.13,120.27-52.08,177.82-82.59,21.6-11.45,6.77-48.76-16.71-39.55C3731.67,1711.37,3629,1772.69,3518.8,1815c-62.23,23.89-123.75,9.15-187.14-1.5-52.73-8.85-105.48-17.16-158.6-23.42-11.2-1.32-13.28,16-2.79,19Z" transform="translate(-324.16 -336.58)"/><path class="c" d="M3744.25,1663.66c45.38,7.26,92.1,6.13,137.83,11.61L3861.86,1649c-14.09,51.15-26,113.24-9.47,165.07,6.8,21.35,36.43,16.25,38.54-5.06,5-50.56.41-98.91,11.94-149.25,3-13.16-6.12-26.33-20.22-26.23-45.47.33-94.85.76-138.27,15.57-6.41,2.19-8.33,13.21-.13,14.52Z" transform="translate(-324.16 -336.58)"/></svg>