<svg width="162" height="36" xmlns="http://www.w3.org/2000/svg" xmlns:xlink="http://www.w3.org/1999/xlink"><path d="M12.5 22.74c5.19-14.53 9.9-19.11 9.9-19.11V19.2c0 3.53-3.42 3.53-3.42 3.53H12.5zm-10-.01L21.56 2.06l.38.63C15.38 10.03 9.96 22.74 9.96 22.74l-7.46-.01zM0 13.18C12.55 9.21 20.11.84 20.11.84l.72.5L0 21.33v-8.15zm0-2.44C11.43 8.09 19.18.34 19.18.34H3.48C.01.34 0 3.5 0 3.5v7.24z" fill="#039"/><path d="M41.71 4.67l-5.27 15.24h-.9L30.27 4.67 29.2 19.92h-1.05l1.32-17.07h1.22L36 18.23l5.34-15.39h1.17l1.32 17.02-1 .1-1.12-15.29zm14.26 15.31l-1.33-4.12h-6.61l-1.31 4.06h-.95l5.1-15.47.93-.11 5.12 15.54-.95.1zM51.34 5.57l-3.04 9.42h6.05l-3.01-9.42zm16.2 14.55L60 12.18v7.74h-.9V4.4h.91v7.38l7.07-7.49.73.49-6.76 7.18 7.25 7.65-.76.51zm2.82-.2V4.4h.91v15.52h-.91zm3.86-7.76c0-5.48 1.71-8.02 6.05-8.02 4.35 0 6.05 2.55 6.05 8.02s-1.71 8.02-6.05 8.02c-4.35 0-6.05-2.55-6.05-8.02zm11.19 0c0-4.3-.86-7.18-5.14-7.18s-5.14 2.88-5.14 7.18.86 7.18 5.14 7.18 5.14-2.88 5.14-7.18zm8.49 7.18c2.11 0 4.01-.89 4.01-3.55 0-2.08-1.97-2.7-4.3-3.39-2.53-.75-4.57-1.6-4.57-4.23 0-2.97 2.17-4.03 4.63-4.03 1.53 0 2.95.22 4.21.91l-.35.78c-1.24-.67-2.5-.84-3.81-.84-2.13 0-3.79.78-3.79 3.17 0 2.15 1.8 2.73 3.97 3.39 2.53.78 4.9 1.51 4.9 4.28 0 3.15-2.22 4.37-4.88 4.37-2.06 0-3.97-.49-5.34-1.37l.4-.8c1.37.82 3.08 1.31 4.92 1.31z"/><g fill="#a9a9a9"><path d="M3.2 31.63H1.99v-4.7H.44v-1.01h4.31v1.01H3.2v4.7zm10.57 0h-3.29v-5.71h3.29v.99h-2.08v1.25h1.93v.99h-1.93v1.47h2.08v1.01zm8.46-4.79c-.46 0-.81.17-1.06.51s-.38.82-.38 1.43c0 1.27.48 1.91 1.43 1.91.4 0 .89-.1 1.46-.3v1.02c-.47.2-.99.29-1.57.29-.83 0-1.47-.25-1.91-.76s-.66-1.23-.66-2.17c0-.59.11-1.11.32-1.56a2.33 2.33 0 0 1 .93-1.03c.4-.24.88-.36 1.42-.36.55 0 1.11.13 1.67.4l-.39.98-.64-.27c-.21-.08-.41-.09-.62-.09zm12.2 4.79h-1.21v-2.46h-2.26v2.46h-1.21v-5.71h1.21v2.24h2.26v-2.24h1.21v5.71zm11.36 0h-1.54l-2.48-4.32h-.04l.07 1.63v2.69h-1.08v-5.71h1.53l2.48 4.28h.03l-.06-1.57v-2.7h1.09v5.7z"/><use xlink:href="#B"/><path d="M63.29,31.63v-5.71h1.21v4.71h2.32v1H63.29z"/><use xlink:href="#B" x="20.58"/><path d="M86.04 28.42h2.27v2.96c-.37.12-.71.2-1.04.25s-.66.07-.99.07c-.86 0-1.52-.25-1.97-.76s-.68-1.23-.68-2.18c0-.92.26-1.64.79-2.16s1.26-.77 2.19-.77c.59 0 1.15.12 1.7.35l-.4.97c-.42-.21-.85-.31-1.3-.31-.52 0-.94.18-1.26.53s-.47.82-.47 1.42c0 .62.13 1.09.38 1.42s.62.49 1.11.49a4.11 4.11 0 0 0 .77-.08v-1.19h-1.08v-1.01zm10.25-.15l1.19-2.35h1.3l-1.89 3.49v2.22h-1.2v-2.18l-1.89-3.53h1.31l1.18 2.35z"/></g><defs ><path id="B" d="M57.26 28.77c0 .95-.23 1.67-.7 2.18s-1.14.76-2.02.76-1.55-.25-2.02-.76-.7-1.24-.7-2.19.23-1.68.71-2.18 1.14-.75 2.02-.75 1.55.25 2.01.76.7 1.23.7 2.18zm-4.17 0c0 .64.12 1.12.36 1.44s.6.48 1.09.48c.97 0 1.45-.64 1.45-1.93s-.48-1.93-1.44-1.93c-.48 0-.85.16-1.09.49s-.37.81-.37 1.45z"/></defs></svg>