<?xml version="1.0" encoding="UTF-8"?>
<svg enable-background="new 0 0 99 32.01" version="1.1" viewBox="0 0 99 32.01" xml:space="preserve" xmlns="http://www.w3.org/2000/svg">

	
		<path d="m12.5 22.74c5.19-14.53 9.9-19.11 9.9-19.11v15.57c0 3.53-3.42 3.53-3.42 3.53h-6.48z" fill="#039"/>
	
	
		<path d="M2.5,22.73L21.56,2.06l0.38,0.63C15.38,10.03,9.96,22.74,9.96,22.74L2.5,22.73z" fill="#039"/>
	
	
		<path d="M0,13.18C12.55,9.21,20.11,0.84,20.11,0.84l0.72,0.5L0,21.33V13.18z" fill="#039"/>
	
	
		<path d="M0,10.74c11.43-2.65,19.18-10.4,19.18-10.4H3.48C0.01,0.34,0,3.5,0,3.5V10.74z" fill="#039"/>
	


	<path d="m41.71 4.67-5.27 15.24h-0.9l-5.27-15.24-1.07 15.25h-1.05l1.32-17.07h1.22l5.31 15.38 5.34-15.39h1.17l1.32 17.02-1 0.1-1.12-15.29z"/>
	<path d="m55.97 19.98-1.33-4.12h-6.61l-1.31 4.06h-0.95l5.1-15.47 0.93-0.11 5.12 15.54-0.95 0.1zm-4.63-14.41-3.04 9.42h6.05l-3.01-9.42z"/>
	<path d="m67.54 20.12-7.54-7.94v7.74h-0.9v-15.52h0.91v7.38l7.07-7.49 0.73 0.49-6.76 7.18 7.25 7.65-0.76 0.51z"/>
	<path d="M70.36,19.92V4.4h0.91v15.52H70.36z"/>
	<path d="m74.22 12.16c0-5.48 1.71-8.02 6.05-8.02 4.35 0 6.05 2.55 6.05 8.02s-1.71 8.02-6.05 8.02c-4.35 0-6.05-2.55-6.05-8.02zm11.19 0c0-4.3-0.86-7.18-5.14-7.18s-5.14 2.88-5.14 7.18 0.86 7.18 5.14 7.18 5.14-2.88 5.14-7.18z"/>
	<path d="m93.9 19.34c2.11 0 4.01-0.89 4.01-3.55 0-2.08-1.97-2.7-4.3-3.39-2.53-0.75-4.57-1.6-4.57-4.23 0-2.97 2.17-4.03 4.63-4.03 1.53 0 2.95 0.22 4.21 0.91l-0.35 0.78c-1.24-0.67-2.5-0.84-3.81-0.84-2.13 0-3.79 0.78-3.79 3.17 0 2.15 1.8 2.73 3.97 3.39 2.53 0.78 4.9 1.51 4.9 4.28 0 3.15-2.22 4.37-4.88 4.37-2.06 0-3.97-0.49-5.34-1.37l0.4-0.8c1.37 0.82 3.08 1.31 4.92 1.31z"/>

<g fill="#A9A9A9">
	<path d="M3.2,31.63H1.99v-4.7H0.44v-1.01h4.31v1.01H3.2V31.63z"/>
	<path d="m13.77 31.63h-3.29v-5.71h3.29v0.99h-2.08v1.25h1.93v0.99h-1.93v1.47h2.08v1.01z"/>
	<path d="m22.23 26.84c-0.46 0-0.81 0.17-1.06 0.51s-0.38 0.82-0.38 1.43c0 1.27 0.48 1.91 1.43 1.91 0.4 0 0.89-0.1 1.46-0.3v1.02c-0.47 0.2-0.99 0.29-1.57 0.29-0.83 0-1.47-0.25-1.91-0.76s-0.66-1.23-0.66-2.17c0-0.59 0.11-1.11 0.32-1.56s0.53-0.79 0.93-1.03 0.88-0.36 1.42-0.36c0.55 0 1.11 0.13 1.67 0.4l-0.39 0.98c-0.21-0.1-0.43-0.19-0.64-0.27s-0.41-0.09-0.62-0.09z"/>
	<path d="m34.43 31.63h-1.21v-2.46h-2.26v2.46h-1.21v-5.71h1.21v2.24h2.26v-2.24h1.21v5.71z"/>
	<path d="m45.79 31.63h-1.54l-2.48-4.32h-0.04c0.05 0.76 0.07 1.31 0.07 1.63v2.69h-1.08v-5.71h1.53l2.48 4.28h0.03c-0.04-0.74-0.06-1.27-0.06-1.57v-2.7h1.09v5.7z"/>
	<path d="m57.26 28.77c0 0.95-0.23 1.67-0.7 2.18s-1.14 0.76-2.02 0.76-1.55-0.25-2.02-0.76-0.7-1.24-0.7-2.19 0.23-1.68 0.71-2.18 1.14-0.75 2.02-0.75 1.55 0.25 2.01 0.76 0.7 1.23 0.7 2.18zm-4.17 0c0 0.64 0.12 1.12 0.36 1.44s0.6 0.48 1.09 0.48c0.97 0 1.45-0.64 1.45-1.93s-0.48-1.93-1.44-1.93c-0.48 0-0.85 0.16-1.09 0.49s-0.37 0.81-0.37 1.45z"/>
	<path d="m63.29 31.63v-5.71h1.21v4.71h2.32v1h-3.53z"/>
	<path d="m77.84 28.77c0 0.95-0.23 1.67-0.7 2.18s-1.14 0.76-2.02 0.76-1.55-0.25-2.02-0.76-0.7-1.24-0.7-2.19 0.23-1.68 0.71-2.18 1.14-0.75 2.02-0.75 1.55 0.25 2.01 0.76 0.7 1.23 0.7 2.18zm-4.17 0c0 0.64 0.12 1.12 0.36 1.44s0.6 0.48 1.09 0.48c0.97 0 1.45-0.64 1.45-1.93s-0.48-1.93-1.44-1.93c-0.48 0-0.85 0.16-1.09 0.49s-0.37 0.81-0.37 1.45z"/>
	<path d="m86.04 28.42h2.27v2.96c-0.37 0.12-0.71 0.2-1.04 0.25s-0.66 0.07-0.99 0.07c-0.86 0-1.52-0.25-1.97-0.76s-0.68-1.23-0.68-2.18c0-0.92 0.26-1.64 0.79-2.16s1.26-0.77 2.19-0.77c0.59 0 1.15 0.12 1.7 0.35l-0.4 0.97c-0.42-0.21-0.85-0.31-1.3-0.31-0.52 0-0.94 0.18-1.26 0.53s-0.47 0.82-0.47 1.42c0 0.62 0.13 1.09 0.38 1.42s0.62 0.49 1.11 0.49c0.25 0 0.51-0.03 0.77-0.08v-1.19h-1.08v-1.01z"/>
	<path d="m96.29 28.27 1.19-2.35h1.3l-1.89 3.49v2.22h-1.2v-2.18l-1.89-3.53h1.31l1.18 2.35z"/>
</g>
</svg>
