<svg id="Ebene_2" data-name="Ebene 2" xmlns="http://www.w3.org/2000/svg" viewBox="0 0 4708.77 3772.53"><defs><style>.cls-1{fill:#c6c6c6;}.cls-2{fill:#fec700;}.cls-3{fill:#ededed;}.cls-4{fill:#dadada;}.cls-5{fill:#3c3c3b;}</style></defs><path class="cls-1" d="M457.5,1812.64c86.61-50.93,173.13-102,260-152.54l-29.88-37.75c-97.82,101.49-187.86,210.12-271.84,323.27-14.81,20,13.26,39.71,31.35,30.47l253.25-129.33-27.45-34.67L443.73,2087.83c-16.79,20.2,3.95,44.22,27.06,34.18,79.48-34.52,159.18-68.53,238.85-102.63l-28-35.41a1351.22,1351.22,0,0,0-230.53,267c-11.42,17.33,7.63,40.33,26.86,34.37a1078.51,1078.51,0,0,0,248.75-113l-33.06-32.13q-93.17,125.46-186.34,250.9c-16,21.49,14.17,41.67,33.32,32.38,73.2-35.52,141-78.18,205.38-127.87l-39-29.06q-109.65,149-218.8,298.44c-15.81,21.65,14.29,43.4,34.06,33.1l293.75-153-29.54-37.33L508.36,2753.22c-16.07,20,4.13,50.63,28.74,36.29l323-188.1-32-31.09a3248.88,3248.88,0,0,1-258.45,317c-17.3,18.7,6,52,28.46,35.94,75.22-53.64,156.21-93.82,244.75-120.46L820,2764Q680.36,2899.8,554.83,3048.75c-16.72,19.84,4.89,52.51,29.26,37q87.82-56,175.63-112L724,2947a561.32,561.32,0,0,1-75.17,153.53c-14.87,21.53,17.85,43.36,35.33,26.3a582.66,582.66,0,0,1,139.91-101c25.08-13,2.89-49.45-21.91-36.79A621.76,621.76,0,0,0,652.3,3096l35.33,26.29c36.39-50.28,63.64-104.2,83.38-163,6.73-20.06-18.52-37.78-35.77-26.73q-87.72,56.18-175.43,112.38,14.63,18.49,29.26,37,125.23-149.2,264.61-285.31c16.7-16.31-.32-45.66-22.88-38.82-92.2,27.94-177.94,69.71-256.3,125.82q14.22,18,28.45,36A3445,3445,0,0,0,868.58,2593c14.24-19.83-13.27-42-32-31.09q-161.67,93.76-323.33,187.54l28.73,36.3,279-344.56c17.13-21.16-4.06-50.51-29.54-37.33L497.2,2556.07l34.05,33.1q109.59-149.07,218.63-298.54c18.2-24.94-19.35-44.37-39-29.06-60.64,47.18-125.69,87.12-194.71,120.81l33.32,32.38,186-251.09c14.81-20-13.91-44-33.06-32.12A1024.21,1024.21,0,0,1,465.76,2239.9l26.86,34.37a1344.18,1344.18,0,0,1,221.79-258.54c21.09-19.11-6-45.07-28-35.41-79.3,34.77-158.56,69.64-238,104l27.06,34.19L705,1843.19c16.4-19.66-4-46.61-27.45-34.67l-253.5,128.89,27.76,35.07c87.05-108.21,177.87-213,270.73-316.27,18.09-20.12-5.39-53.15-29.89-37.75Q565.07,1698.71,436.88,1778c-22.47,14-2.14,48,20.62,34.62Z" transform="translate(-389.92 -760.38)"/><path class="cls-1" d="M1011,3476.6c65.46-39.62,131.21-78.8,196.31-119L1176.91,3328c-45,67.7-77.2,142.22-99.51,220.23-6.22,21.76,23.74,39.65,39.17,22C1175.32,3503,1239.8,3441.88,1311,3387.9l-34.7-13.76c9.68,47.48,1.29,90.06-24.34,131.14-14.32,22.95,18.84,46.65,37.24,27.72q92.94-95.57,185.86-191.14l-39.88-22.38a1104.42,1104.42,0,0,1-84.26,208.91c-13,24.72,17.55,45.53,37.71,28.07l194.94-168.78-41.27-16.57c5.74,49.64,1.46,94.52-14.32,142.19-8.39,25.32,23.75,36.23,40.52,22.74l170.59-137.35-40.53-22.75q-36,109.54-71.93,219.09c-7.3,22.26,25.34,41.26,40.51,22.73q82.69-101,168.32-199.45l-40.39-22.67Q1778,3458.45,1761,3521.23c-6.37,23.48,23.49,39.16,40.34,22.64a931.83,931.83,0,0,1,221-160.8l-36.16-20.29a454.84,454.84,0,0,1-25.78,157.8c-8.43,24.2,23.91,37.13,40.15,22.54A1101.93,1101.93,0,0,1,2178.21,3413l-35.13-26.25q-8.76,55.21-17.51,110.42c-3.08,19.38,16,37.85,35.08,26.21a386.62,386.62,0,0,0,93.65-79.19l-27.88,3.83,9.09,25.59c-17.44,21.8,12.91,51.74,31.12,30.14,26.55-31.47,21.5-75.31-17-94.87-8.7-4.42-20.93-3.82-27.88,3.83a381.11,381.11,0,0,1-85.15,70.35l35.08,26.21q8.79-55.2,17.57-110.4c3.13-19.65-15.93-37.56-35.13-26.24a1166.29,1166.29,0,0,0-187.61,137.54l40.15,22.53a491,491,0,0,0,27.65-169.9c-.22-18.87-20.19-28.67-36.16-20.3a978.21,978.21,0,0,0-231,168.27l40.34,22.64q17.09-62.79,34.15-125.57c6.08-22.36-24.36-41.1-40.39-22.67q-85.68,98.43-168.42,199.35l40.51,22.73q36-109.53,72-219.07c8.32-25.32-23.73-36.27-40.53-22.74q-85.29,68.67-170.58,137.35l40.52,22.74c16.75-50.8,22.15-101.22,15.94-154.4-2.45-21-24.65-31-41.27-16.57l-194.71,169,37.71,28.08a1165.31,1165.31,0,0,0,88.79-220.11c6.62-22.9-23.62-39.13-39.88-22.38q-92.8,95.68-185.63,191.36l37.24,27.72c32-51.44,41.26-107.13,29.11-166.36-2.82-13.76-23-22.66-34.7-13.76-74.46,56.6-142.49,119.38-203.89,190l39.16,22c21-75.14,52.62-143.77,92.82-210.48,11.06-18.36-12-42.33-30.42-29.57-63.07,43.73-125.47,88.46-188.14,132.75-14.65,10.35-1.55,33.32,14.18,23.8Z" transform="translate(-389.92 -760.38)"/><path class="cls-1" d="M2911.62,1112.66c73-34.19,146.19-68.06,219.15-102.37l-28-27.22c-65.21,92.09-128.22,185.88-191.34,279.42-11.19,16.58,7.48,38.86,25.85,33.08a821,821,0,0,0,201.26-94.29l-28.34-35.79q-95.89,120.18-191.8,240.33c-15.18,19-1,42.72,22.94,38.92l119.43-18.92-23.13-39.25-147.28,188.3c-11.35,14.52-8.1,33.87,10.71,40,36.3,11.77,70.2,12.35,107.1,2.85q-13.77-17.61-27.53-35.24-64.37,97.9-128.44,196c-14.93,22.9,13.65,41.56,33.74,32.79l159.61-69.69-35.71-26.68C2996.72,1765,2975,1809.7,2942.38,1850c-15.11,18.66-1.13,43.77,23.09,39.18q84.12-15.95,168.24-31.86l-28.9-28.44-38.1,142c-5.12,19.09,17.27,37.36,34.65,25.89l172.18-113.62L3239,1869.49c15.48,40.52,14.65,78.19-2.4,118.14-8.65,20.27,18.59,34,34.34,25.66l165.28-88.06L3402,1899.64q-7.92,50.65-15.85,101.32c-2.52,16.1,10.13,34,28.4,28l174.34-57.45-28.33-27.87a666.87,666.87,0,0,1-53.47,116.84c-9.31,16.13,6.59,40.62,25.94,33.21l233-89.27-25.84-33.08q-50.79,67.53-101.73,134.93c-11.8,15.64,8.07,40.35,26,33.3l208.77-82-28.7-28.24c-15.71,36.46-30.95,73.12-46.33,109.71-6.62,15.73,12.85,32.77,27.83,27.4,63.17-22.67,126.22-45.69,189.5-68l-25.94-25.53q-11.89,63.84-23.8,127.69c-3,16.27,14.52,33.9,30.59,22.85,51.67-35.5,103-71.47,154.91-106.64l-30.17-16.92c2.7,34-4.26,61.61-26.33,88.23-14.66,17.7,3.59,42.5,24.86,31.4l162-84.53-32.3-18.13c3,35.16-5.56,62.39-30.35,87.83-16.82,17.26,6.27,49.1,26.69,33.71a1478.24,1478.24,0,0,1,195.05-125l-33.39-18.74c1.66,48.26-10.79,87.82-39.28,126.77-13.13,18,12.9,41.59,30.4,29.54q90.7-62.4,181.39-124.8c9.49-6.53,15.06-19.24,8.15-30-36.15-56.2-32.93-122.22,6.78-175.68,11.52-15.52-7.68-37.43-24.82-31.76-42.68,14.1-74.07,38.19-98.09,76.39l37.85,21.23c42.13-86.58,84.17-173.2,127.13-259.38,7.69-15.43-5.46-38.3-24.47-31.33-51.91,19-91.93,50.12-121.46,97.1-13.59,21.62,19.09,46.24,35.83,26.67a1330.14,1330.14,0,0,0,168-247.29c6.23-11.88,1.58-30-13.54-32.65-41.9-7.23-76.89,2.36-108.79,30.77l39.05,15.68c1.22-68.94,104.15-106.22,82-181.58-23.84-81.09-124.45-49.07-175.42-19.07l32.69,31.77q18.8-40.46,37.57-80.9c6.58-14.18,1.57-30-14.39-34.72A1630,1630,0,0,0,4299,1245.8q-68.22-7.68-136.88-9c-45.72-.84-97.5,5.11-130.82-32.6-5.75-6.5-16.05-8.11-24.05-6.1A1048.14,1048.14,0,0,1,3687,1227.76l24.09,23.92q-1-22.8-2-45.61c-.63-14.12-10.53-22.47-24.06-23.9l-107-11.31,20.67,35.61q12-27.49,24-55c8.42-19.31-5.46-39.2-27.11-34.7l-112.71,23.41,29.48,29q14.09-35.88,28.16-71.78c6.63-16.89-13.3-34.4-29.43-29l-106.14,35.78,26.94,34.49,39-68.3c12.61-22.11-12.26-41.8-32.88-32l-151.68,72.45,32.77,31.84,43.46-71c9.92-16.19-3.18-34-20.37-35.09-69.2-4.57-133.79,7.91-197.32,35.25l28.14,35.54c26-23,43-49.36,54.57-82,8.53-24-22.65-33.72-38.2-21.44l-116.86,92.23c-22.52,17.78,9.46,47.32,31.36,30.36l117.83-91.28-38.2-21.44c-9.39,25.69-22.84,43.83-43.42,61.73-21.85,19,6.32,44.69,28.13,35.54,55.58-23.33,113.43-31.51,173.33-27.49L3321,1048.55l-43.54,71c-13.44,21.91,12.72,41.39,32.77,31.84L3462,1079l-32.88-32-39,68.25c-9.89,17.3,6.78,41.26,26.94,34.49l106.18-35.67-29.43-29q-14.13,35.88-28.24,71.77c-7.24,18.39,13.58,32.29,29.48,29l112.73-23.3L3580.6,1128l-24,54.94c-7.69,17.59,1.5,33.56,20.67,35.61l107,11.42L3660.23,1206q1,22.82,2,45.62c.6,13.7,10.52,23.09,24.09,23.92a1104.69,1104.69,0,0,0,333.59-30.19l-24-6.1c54.07,61.71,151,45.63,224.33,49.65,115.58,6.34,229.36,26.69,340.61,58.39l-14.4-34.71q-18.52,40.61-37,81.2c-9.39,20.57,10.88,44.8,32.69,31.77,20.87-12.46,85.62-49.18,104.5-12.69,12.69,24.53-18.34,53.82-31.79,70.6-24.89,31.07-48.55,60.89-49.07,102.37-.26,20.73,24.92,28.39,39.05,15.67,18.86-17,38.41-23.33,64.13-18.89q-6.78-16.32-13.54-32.65a1277.21,1277.21,0,0,1-160.83,238.16l35.83,26.68c22.85-36.37,52.71-62.37,93.15-77.8q-12.24-15.66-24.47-31.33c-41.8,86.75-84.51,173-127.13,259.4-12.43,25.19,22.88,44.74,37.85,21.23,18-28.21,39.36-45.21,71.49-55.63l-24.82-31.77c-48.84,65-50.9,151.46-7.08,219.61q4.08-15,8.15-30-90.69,62.43-181.33,124.9l30.4,29.54c32.37-44.31,47.22-93.5,45.3-148.31-.6-17.2-18.4-26.74-33.39-18.74A1431.61,1431.61,0,0,0,4219,2204.63l31.23,30.24c31.5-33,46.52-72.28,42.16-118-1.56-16.29-17.11-26.24-32.3-18.13L4099,2184.83l24.86,31.4c28.11-34.63,41.3-71.52,37.43-116.37-1.2-13.9-16.64-26.23-30.17-16.92-51.64,35.48-103.83,70.15-155.71,105.3l30.59,22.85q12.33-63.72,24.65-127.46c2.82-14.6-9.69-31.18-26-25.53-63.3,22-126.86,43.38-190.28,65.08l25.55,32.7c16.73-38.19,33.6-76.32,50-114.65,6.77-15.85-13.32-34.33-28.7-28.25l-208.62,82.52,26,33.3q50.7-67.56,101.46-135.08c11.77-15.63-8-39.9-25.85-33.08l-233.05,89.11q13,16.59,25.94,33.2a730.84,730.84,0,0,0,58.21-127.59c5.67-16.37-12.3-33.14-28.32-27.87l-174.37,57.33,28.4,27.94,15.92-101.3c3.12-19.87-15.33-35.66-34.25-25.59l-165.34,88,34.33,25.66q30.18-70.57,2.75-142.19c-5.07-13.34-20.9-22.68-34.55-13.7L3077.64,1957l34.65,25.9q19.15-71,38.3-141.95c5-18.42-11.79-31.64-28.9-28.44q-84.18,15.74-168.39,31.3,11.53,19.59,23.09,39.18c38.16-46.75,64.89-97.36,80.42-155.78,6-22.39-17.37-34.6-35.71-26.68l-160,69.11,33.74,32.78q64.38-97.87,128.34-196.05c12-18.38-7.9-40.37-27.54-35.24-28.58,7.45-53.3,6.36-81.39-2.64q7.27,17.52,14.54,35l146.64-188.77c14.39-18.52-9.42-37.26-26.9-34.43l-119.34,19.31,22.94,38.91q95.57-120.49,191.18-240.93c15.27-19.23-4.39-51.38-28.33-35.8a772.86,772.86,0,0,1-189.47,90l25.85,33.08c62.88-93.52,126-187,186.8-282,11.6-18.14-11-36.18-28-27.22-71,37.52-141.79,75.48-212.75,113.12-16.32,8.66-1.94,31.35,14.18,23.8Z" transform="translate(-389.92 -760.38)"/><path class="cls-1" d="M2905.24,2422.62c58.48-15.36,117.54-29.35,175.49-46.61L3058.89,2339q-65.26,69.28-130.36,138.72c-17.59,18.88,5.66,51.39,28.55,36.06,78.48-52.54,161.21-97.15,248.73-132.73l-26.45-33.86a793.24,793.24,0,0,1-192.49,191.94c-24.82,17.44-3.37,54.41,23.82,40a2421.51,2421.51,0,0,0,293.84-183.95l-32.23-31.32q-59.48,126.32-170.38,211.17c-21.2,16.24,6.37,49.57,28.3,35.75a1890.48,1890.48,0,0,1,268.4-140.43l-31.68-30.79q-61.87,90.84-123.59,181.77c-15.47,22.8,17.68,42.34,35.92,26.75,83.29-71.2,176.61-128.37,278.34-169.17q-12.39-15.84-24.77-31.7L3372.6,2675.51c-15.46,22,17.28,41,35,26,87.74-74.29,185.15-133.73,290.83-178.85l-32.76-24.47c-25.56,65.39-64.18,121.41-115.24,169.52-18.28,17.23,6,48.36,27.1,34.23a1525.17,1525.17,0,0,1,239.91-131.2l-30.73-29.87L3679,2710.22c-12.48,19.62,12.3,41.45,31.2,30.32l259.47-152.71-28.25-35.68-151.72,185.9c-15.5,19-.77,42.28,22.84,38.75,56.42-8.44,100-44.2,140.88-81.6,42.89-39.25,92.06-99.71,156.94-89.34l-14.25-34.35L3979.85,2756c-12.44,19.74,13.05,45,32.61,31.69q110.53-75,215-158.11l-37.32-27.78-97.66,173c-8.31,14.73,2,35.66,20.12,34.64,51.45-2.86,93.5-21.18,128.45-59.32l-37.71-9.57q11.06,24.49-7,42.82c-13.52,18.31,16.89,40.31,31.54,23.48,20.43-23.46,27.07-47.74,19-78-4.38-16.46-25.9-21.34-37.71-9.58-27.21,27.1-57.81,41.71-96,43.8l20.11,34.64,97.83-172.91c14.16-25-17.5-43.49-37.31-27.78q-99.84,79.13-205.36,150.42l32.62,31.69,116.44-184.33c7.61-12.05.82-31.93-14.25-34.35-143-23-194.9,151.88-322.82,171.45l22.84,38.75,151.14-186.46c15.84-19.54-4.16-50-28.25-35.69q-129.46,76.8-258.95,153.58l31.2,30.32,107.1-169.65c13.21-20.93-12.22-38-30.74-29.87A1544.37,1544.37,0,0,0,3555,2664.22l27.09,34.22c56.86-53.63,98.23-116.16,126.63-188.92,8-20.54-17.47-31-32.76-24.48-109.3,46.73-209.27,109.19-299.9,186l35,26,160.1-228.43c10.51-15-7.31-38.72-24.77-31.71-109.54,44-209.32,103.46-299.45,179.76l35.92,26.74Q3345,2552.79,3407,2462c14.69-21.51-13.19-38.63-31.68-30.79a1888.23,1888.23,0,0,0-268.61,140.08l23.48,39.43c78.68-60.11,140.48-134.35,182.86-224,9-19.05-11.56-46.37-32.23-31.31a2452.54,2452.54,0,0,1-294,183.71l23.82,40a861.65,861.65,0,0,0,209.58-209c11.27-15.93-7.86-41.42-26.45-33.85-91.52,37.25-178.32,82.67-260.43,137.7l28.55,36.07c43.24-46.46,86.13-93.24,129.12-139.93,14.65-15.91.49-43.92-21.84-37-57.92,17.8-115,38.94-172.27,58.61-19.73,6.77-12.33,36.38,8.29,31Z" transform="translate(-389.92 -760.38)"/><path class="cls-2" d="M1522.78,2615q126.84-53.15,252.24-109.79l-30.17-38.11q-134.38,132.1-268,265c-21.39,21.22,6,53.61,31.51,39.81q213-115.35,417.71-245l-32.5-41.06q-224.32,196-448,392.69c-23.45,20.6,7.64,59.57,33.42,42.22l566.79-381.36-33.48-42.29a5036.4,5036.4,0,0,0-559.6,548c-24.2,27.71,11.87,59,39.26,38q272.33-208.93,544.66-417.82l-39.41-38.16L1482,3102.78c-23.16,21.38,7.58,60.55,33.92,42.84q260.57-175.14,521-350.45l-33.89-42.81-353.53,389.1c-20.42,22.48,6.49,60.86,33.79,42.68Q1845,3076.5,2006.41,2968.55l-37.11-36.06a593.8,593.8,0,0,1-145.13,195.76c-23.71,21.18,6.78,54.84,32.64,41.23,22.43-11.81,38.62-27.3,55.77-45.82,8-8.61,16.19-20,25.88-26.56,6-4.08,53.49-20,48.45,3.12-7,32,42.24,44.58,49.54,13,9.85-42.62-21.41-71.58-62.45-76.47-67.61-8-92.44,60.06-144.28,87.26l32.64,41.24a635.31,635.31,0,0,0,153.89-206.41c10.61-22.61-12.83-52.12-37.11-36.06q-161.92,107.14-323.86,214.3l33.79,42.68q176.82-194.49,353.65-389c20.47-22.51-6.58-61.17-33.89-42.8q-260.55,175.17-521,350.41l33.91,42.84,515-475.91c27.19-25.13-12.31-59-39.41-38.16q-272.22,209-544.51,418l39.26,38a5037.27,5037.27,0,0,1,559.52-548c24-20.13-7.76-59.61-33.48-42.3l-566.74,381.44,33.42,42.22q223.69-196.59,446.93-393.73c22.87-20.21-7.17-57.28-32.51-41.06q-204,130.62-416.89,246.4l31.52,39.81q133.4-133.08,266.4-266.56c20.76-20.9-5.68-50.08-30.17-38.1q-122.85,60.07-244.12,123.41c-19.82,10.37-2.32,36.46,16.91,28.41Z" transform="translate(-389.92 -760.38)"/><path class="cls-3" d="M539.74,4332.83c-49.36,16.87-109.48,55.77-92.48,105.09,12.4,36,57.87,45.69,95.77,49.33,659.51,63.19,1324.33,14.67,1983.91-47.7,745.76-70.51,1489.72-158.67,2233.59-246.82,81.42-9.65,169-22.11,228.14-78.91-76.07-56.62-173.64-73.8-267.44-87.72-1076.15-159.61-2148.7-54.55-3218.82,97.8C1175.78,4170.4,852.82,4225.79,539.74,4332.83Z" transform="translate(-389.92 -760.38)"/><path class="cls-4" d="M1144.61,4367.18c116.32,52.81,245.27,72.83,373,76.26,525.34,14.14,1029.06-241.1,1554.54-233.95,348.92,4.75,734.26,116.91,1023.05-79-302.47-136.95-652.44-56.14-980.65-5.95-361.74,55.31-729.7,71.34-1094.13,40.51-157.23-13.3-301.15-17.61-457.63,19.49C1495.62,4200.5,1170.83,4379.08,1144.61,4367.18Z" transform="translate(-389.92 -760.38)"/><path class="cls-5" d="M2004.15,792.81C1702.59,647.69,1411,1023.5,1287.91,1250.1c-76.13,140.13-142.08,304.84-139.77,466.49,2.37,165.82,89.93,337.59,176.29,475.79,76,121.56,178.46,233.68,317.41,281.06,140.56,47.94,322.07,61.73,463.41,11.34,143-51,228.78-174.52,289.38-307.64,60.21-132.28,111.58-281.43,125.44-426.84,16.75-175.86-36.3-363.89-163.73-490-121.46-120.17-300-177.25-467-135.57-42,10.48-25,73.15,17,63.43,136.51-31.58,281.07,11.43,384.63,104.48,110.06,98.88,163,246.64,163.62,392.5.53,129.27-41.77,260.75-86.78,380.78-43.88,117-104.46,252-213.65,322-118.44,75.91-272.54,68.22-405.3,43.51-140.28-26.12-244.8-100.52-328.42-215.26-81.21-111.43-150.18-246.55-188.28-378.95-44-153-.81-309.87,59.51-452.27,61.34-144.81,145.19-284,254.69-397.58,113.39-117.58,275.48-226.24,444.2-163.11,18.17,6.8,31.53-22.84,13.58-31.48Z" transform="translate(-389.92 -760.38)"/><path class="cls-5" d="M1558.46,2454.37c-72.39,78.84-108.8,195.79-138.78,297-32.16,108.5-56.46,227.27-54.25,340.89.66,34.11,56.93,44.14,62.48,8.07,16.68-108.4,29.15-215.76,56-322.41,26.45-104.9,77.16-205.56,96.25-311.31,2.14-11.87-12.39-22.39-21.74-12.2Z" transform="translate(-389.92 -760.38)"/><path class="cls-5" d="M1382.35,3156.3c18.8,4.4,36,17.84,54.59,23.77,24.76,7.89,51.48,11.39,77.06,15.54,51.61,8.36,103.92,12.86,156.06,16.41,52.74,3.59,105.8,5,158.65,3.94,47.08-.92,101.51,4.25,143.38-19.42,22.75-12.85,14.83-42-6.5-50.28-43.74-16.94-99.42-4.61-145.8-3.4s-92.57,1.61-138.89.94-92.38-3.11-138.61-5.47c-26.22-1.33-52.68-3.34-78.94-3.49-24.51-.14-55.11,8.28-78.77,6.3-8.82-.74-10.89,13.14-2.23,15.16Z" transform="translate(-389.92 -760.38)"/><path class="cls-5" d="M2046.75,3140.42c34.51-94.86,37.34-200.74,46.92-300.46,10-104.26,26.51-213.89,21.95-318.61-1.58-36.41-59.91-47.75-67.22-8.69-19.25,102.94-19,212.48-24.22,317-5.07,102.21-17.47,210,4,310.86,2.11,9.94,15.66,8.06,18.62-.06Z" transform="translate(-389.92 -760.38)"/><path class="cls-5" d="M2213.38,1653.34c-45.73,29.21-41,112.55-10.05,151.45,15.36,19.3,43,1,45-18.43,2.34-22.11-5.31-44.48-6.91-66.56-1.74-24.07-.18-42.57-14.44-63.07-3-4.25-8.89-6.41-13.62-3.39Z" transform="translate(-389.92 -760.38)"/><path class="cls-5" d="M1855.86,1693.06c-6,9.93-14.7,14.57-18.26,27.19-3.93,14-3.29,28.55-1.32,42.77,3.9,28.25,15.44,57.37,39.94,73.38,22,14.41,51.11-9.52,44.75-33.72-4.9-18.62-16.78-34.17-21.85-53-2.36-8.74-3.65-17.56-5.31-26.43a59.93,59.93,0,0,0-3.36-12.84c-1.09-2.55-5.59-7.34-5.84-9.9-1.39-14.65-20.43-21.27-28.75-7.49Z" transform="translate(-389.92 -760.38)"/><path class="cls-5" d="M1087.65,3312.24c93.62,36.1,198.78,46.71,297.91,58a2842.11,2842.11,0,0,0,317.22,18.18c105.82.16,211.81-5.92,317.06-16.69,98.76-10.11,209-16.31,303.22-48.38,33.27-11.32,31.76-66.43-8-64-104.67,6.41-209.33,33.92-314.05,44.62-98.85,10.1-198,15.2-297.34,16.72s-198.52-1-297.57-7.26c-104.56-6.56-210.21-26-314.93-25.34-14.82.09-16.36,19.21-3.55,24.14Z" transform="translate(-389.92 -760.38)"/><path class="cls-5" d="M2340.58,3293c-60.39,84-72.86,186.66-45.45,286.23l34.87-44a6183.83,6183.83,0,0,1-664.88,40.15c-222.8,1.36-443.14-19.39-665.35-28.9-34.52-1.47-44.73,54.74-8.92,60.66,217.21,35.91,443.51,39.09,663.22,38.39,225.58-.72,450.91-14.84,675-40.67,21.88-2.52,41.57-19.78,34.87-44-23.7-85.77-21.76-172.67-2.2-259.27,3-13.24-13.74-18.83-21.14-8.53Z" transform="translate(-389.92 -760.38)"/><path class="cls-5" d="M997.41,3571.93c18.94-65.27-5-238.72,102.71-227.39,38.81,4.08,44-53.2,9.47-64.37-56.93-18.43-111.41,16.47-138.56,66.44-36.94,68-9.72,149.47-4.23,221.36,1.29,16.9,25.58,21.32,30.61,4Z" transform="translate(-389.92 -760.38)"/><path class="cls-5" d="M970.26,3447.31c-58.25-1.75-113.91-31.83-151-76.2-18.56-22.19-33-48.68-40.29-76.77-6.41-24.82-3.37-50.42-10.3-75-5.87-20.76-35.32-24.29-46.2-5.68-36.64,62.67,9.09,153.3,53.41,200.33,52.65,55.88,123.47,80.31,198.56,66.66,19.73-3.59,14.81-32.83-4.16-33.39Z" transform="translate(-389.92 -760.38)"/><path class="cls-5" d="M991.29,3387a273.29,273.29,0,0,1-88.45-87.74c-21.63-34.84-26.83-72.67-41.06-110.08-10.86-28.54-48-22.19-52.19,6.85C795.27,3294.85,894.9,3386.43,981,3411c14.55,4.15,23.14-16.11,10.34-24Z" transform="translate(-389.92 -760.38)"/><path class="cls-5" d="M706.93,1588.36a544.31,544.31,0,0,0-210.13,72.83c-29.9,17.83-60.07,38.5-85.82,62-30.14,27.53-20.29,53.9-16.26,92.6,16.16,155.5,33.37,310.89,50.07,466.34q21.85,203.37,43.78,406.74c8.55,78.46,17.58,156.86,26.61,235.26,10.11,87.74,11.71,179.62,47.71,260.59,9.66,21.73,47.34,10.63,45.89-12.3-15.45-244.06-51.31-489.38-77.63-733.12-24.85-230.19-42.74-462.85-78.72-691.59l-8.38,30.3c74.38-78,164.42-126.68,266.85-157.82,16.81-5.12,15.39-34.29-4-31.85Z" transform="translate(-389.92 -760.38)"/><path class="cls-5" d="M588.05,3187.2c33.87,10.24,89.82,6.25,131.85,4.27,54.63-2.58,112.37-.79,165.39-15.08,40.59-10.94,29.51-63.83-8.48-68-51.16-5.64-104.93,4.58-155.92,10.07-39.77,4.29-91.76,3.52-128.63,19-26.8,11.28-48.36,56.29-8.55,64.93,9.94,2.16,14.32-12.19,4.34-15.21Z" transform="translate(-389.92 -760.38)"/><path class="cls-5" d="M929.53,3088.31c-1.86-35,11.05-70.78,11-106.27-.09-32.74-.66-65.54-2.22-98.24-2.7-56.43-6.53-112.9-10.67-169.24-7.43-101.09-16.1-202.11-27-302.89q-15.69-145.41-35.79-290.28-12-87.87-25.16-175.59-6.57-44.11-13.38-88.19c-1.78-11.45-22.74-101.56-20.69-103.61l-35.18,9.42,4.7,1.16-24.89-24.5c.27-2.73.53-5.46.8-8.19l43.12-24.25-3.62-.58c-42.67-6.75-62.58,52.47-18.74,65.7l3.49,1c19,5.72,36.64-7.17,43.12-24.25,14.91-39.35-30.25-69.64-62.65-45.73-44.37,32.75-7.51,129.88-.92,172.93,21.26,138.7,42.33,277.43,59.79,416.67,15.08,120.24,27.67,240.82,38.89,361.48q9.45,101.65,18.78,203.32c3.14,34.64,7.13,69.15,11.63,103.63,5.58,42.81,25.19,84.33,28.89,126.44.92,10.43,17.28,10.61,16.72,0Z" transform="translate(-389.92 -760.38)"/><path class="cls-5" d="M1502,3694c-84.86,57.51-153.66,138.91-215.68,219.75-62.65,81.66-136.25,177-168.18,275.92-10.79,33.43,36.36,47.66,54,21.79,27.76-40.68,47.2-88,71.81-130.81q39.33-68.45,84.91-133c58.67-83.12,128.63-156.56,189.36-237.85,7.15-9.58-6.91-22.09-16.23-15.77Z" transform="translate(-389.92 -760.38)"/><path class="cls-5" d="M1036.71,4264.07c-10.18-39.59-53-53.63-87.87-34.19-42.7,23.79-57.24,80-50.89,125.11,16.09,114.35,146.83,171.13,238,97.73,84.71-68.25,86-243.74-45.56-261.92-43.27-6-93.46,44.22-52.16,81.32,31.53,28.32,82.45-10,57.79-46.39-18-26.53-55.38-3.63-43.14,25q1.35,3.17,2.71,6.33l.07-25.19c-2.21,4.21,43.67,33.15,50.3,40.25,9.67,10.36,17.59,21.7,21.58,35.34,5,17.21,3.36,34.81-2.79,51.49-13.11,35.54-47.09,68.18-86.82,68-37-.18-66.93-28.76-81.82-60.66-7.32-15.69-11.79-33.07-11.05-50.46a75.55,75.55,0,0,1,9.28-34.17c7.18-13.05,48.69-64.15,63.13-12.38,3.37,12.11,22.42,7,19.28-5.17Z" transform="translate(-389.92 -760.38)"/><path class="cls-5" d="M1810.43,3708.78c31.89,84.1,92.92,159.69,134.09,239.92,44.62,86.93,73.28,179.28,113.05,267.91,15.86,35.35,70.81,9.47,62.47-25.91-22.29-94.57-74.16-189.14-122.91-272.44-44.56-76.15-98.28-169.24-172.26-220.36-6.54-4.53-17.38,3.13-14.44,10.88Z" transform="translate(-389.92 -760.38)"/><path class="cls-5" d="M2060.57,4321.47c-45.29,41.35-49.9,102.88-16.59,154.95,34.88,54.53,104.56,69.48,162.33,45.27,58.85-24.65,99-85.73,85.06-150.39-14.65-67.76-83.63-125.87-154.31-110.89-29.54,6.26-31.94,54.86-.54,60.16,38.86,6.55,76.27,20.34,86.8,63.21,9.06,36.87-17.53,70.27-51.93,81.09-74.3,23.36-111-73.12-87.74-130.44,5.59-13.79-14.07-21.18-23.08-13Z" transform="translate(-389.92 -760.38)"/><path class="cls-5" d="M1973.48,3194.2c94.17,10.86,190.7,12.74,285.39,16.92,41.78,1.85,94.15-5,134.08,9.36,50.49,18.16,53.45,91.38,62.15,136.73,35.65,185.88,40.49,376,19.13,563.83-2.13,18.68,17.25,33.6,34.1,33.88,48.09.81,97.51,6.36,145.36,1.49,33.72-3.44,50.63-59.09,9.51-64.68-50.82-6.91-102.7-3.64-153.95-4.49l34.11,33.87C2568,3704.59,2560,3476.67,2504.65,3265c-23.83-91.13-85.66-113.46-173.57-113.27-118.36.26-239.17-1.44-357.14,8.48-22.34,1.88-22.63,31.45-.46,34Z" transform="translate(-389.92 -760.38)"/><path class="cls-5" d="M2016.59,3131c123.28-17.38,244.15-27.29,368.8-26.43q43.29.3,86.53,2.74c40,2.26,75.49,1,86,47.69,5.7,25.39-.61,60.18-.55,86.6q.11,49,1.39,98.08c1.53,58.83,4.69,117.63,9,176.32,3.37,45.67,4.63,94.12,21.29,137.34,24.91,64.62,114.73,126.68,175.81,67.61,23.8-23-1.35-56.41-30.08-51-120.15,22.45-100.15-196.42-103.57-271.35-2.69-58.8-4.51-117.64-4.91-176.51-.3-43.45,9.29-99.43-18.27-137.11-21.19-29-55.55-36.07-89.29-38.48-56.58-4.06-114.5-1.3-171,2.29-112.22,7.12-228.89,30-335.74,65-11.46,3.75-6.81,18.92,4.63,17.3Z" transform="translate(-389.92 -760.38)"/><path class="cls-5" d="M2918.8,2292.75c-30,44-51.07,91.32-73.5,139.52-16.79,36.08-40.23,74.61-46,114.59-10,68.77,41,109.91,100.36,130.49,94.85,32.88,198.7,47.5,296.59,69.19,103.14,22.86,206.22,46,309.44,68.49,209.61,45.64,418.93,96.16,629.59,136.6,89.05,17.08,137.75-15.47,176.73-94.86,40.86-83.25,65.7-171.29,78.77-262.89,5.47-38.39-62.86-46.94-68.49-8.84-12.14,82.18-34.59,162.69-71.62,237.31-7,14-13.62,29.52-23.27,41.88-20,25.65-43.24,21.4-72.26,17.78-40-5-80.6-17.25-120-25.69q-255-54.59-510.07-109.17c-166.74-35.55-333.55-71.28-500.7-104.82-58.72-11.78-187.73-15.77-167.35-104.92,18.55-81.17,66-153.75,83.54-235.9,2.86-13.36-14.23-19.74-21.72-8.76Z" transform="translate(-389.92 -760.38)"/><path class="cls-5" d="M2978.77,2287.59l-3.45-1.39,6.45,15.55c7.43-9.93,153.64,33.36,171,37.38q80.73,18.75,161,39.37c113.49,28.91,226.15,61.06,339.79,89.27,217.26,53.94,445.6,114.07,670.06,125,40.93,2,52.88-64.77,10.56-71.8-128.24-21.31-256.9-35.91-384.58-61.49s-254.15-56.56-381.69-82.64c-124.59-25.47-248.7-53.07-373.78-76.18-59.15-10.93-118.71-22.72-178.57-29-21.64-2.27-54.37-6.21-54,24.85a10.81,10.81,0,0,0,13.63,10.27l3.47-.93c9.93-2.68,8.55-14.87.16-18.23Z" transform="translate(-389.92 -760.38)"/><path class="cls-5" d="M3011,2437.26c15.47,13,33.25,23.1,50.59,33.41,17.91,10.65,34.76,25,56.39,24.6,18.4-.32,35.74-22.24,23.45-39.5-13.1-18.39-32.3-22.84-52.5-31.14-18.87-7.75-37.9-16.62-57.82-21.24-18.25-4.24-36.76,19.86-20.11,33.87Z" transform="translate(-389.92 -760.38)"/><path class="cls-5" d="M3234.21,2511c17.13,4.59,35.5,8.38,53.17,6.56,16.65-1.72,33.69-13.16,33.07-31.93-.62-19-14.29-30.13-32.2-32s-36.36,2-53.59,6.61c-25.47,6.77-26.26,43.83-.45,50.74Z" transform="translate(-389.92 -760.38)"/><path class="cls-5" d="M3043.83,2557.47c27.17,21.6,65.09,35.24,98.15,44.72,27.57,7.91,48.9-35.59,20.56-47.66-32-13.62-70.05-27.89-105.26-28.38-14.76-.2-26.64,20.83-13.45,31.32Z" transform="translate(-389.92 -760.38)"/><path class="cls-5" d="M3299.59,2659.86c18.78-9.91,36.88-10.15,57.28-6.2,15.67,3,32.26-4.58,36.86-20.73,4.17-14.64-5-32.8-20.73-35.84-36.86-7.13-72.39,4.59-101.56,27.21-21.71,16.83,6.16,47.17,28.15,35.56Z" transform="translate(-389.92 -760.38)"/><path class="cls-5" d="M3473,2553.24c40.77,4.32,73.17,15.31,110.13,32.8,24.94,11.8,57.65-21,32.56-41.64-39.87-32.74-97.52-45.49-147.93-33.21-25.36,6.18-18,39.58,5.24,42Z" transform="translate(-389.92 -760.38)"/><path class="cls-5" d="M3588,2678.32c20.38-5.68,36.9,4.84,47.06,21.92,18.38,30.9,62.51,3.72,48.42-28-18.29-41.21-74.62-52.86-111.72-32.35-21.29,11.77-7.08,44.95,16.24,38.46Z" transform="translate(-389.92 -760.38)"/><path class="cls-5" d="M3806,2634.74c12.08,3.52,25.29,4.58,37.78,5.85,13.19,1.33,25.48-2.87,38.25-5.59,26-5.54,26.78-46,.46-51.65-12.65-2.72-24.78-6.88-37.86-5.54-12.67,1.3-25.93,2.36-38.17,5.89-25.6,7.39-26.38,43.51-.46,51Z" transform="translate(-389.92 -760.38)"/><path class="cls-5" d="M3838.87,2766.18c30.16,7.79,60.21,16.43,90.49,23.68,39.84,9.55,50.9-51.06,8.23-56-30.78-3.57-61.81-5.78-92.67-8.82-24.12-2.38-29.18,35.19-6.05,41.16Z" transform="translate(-389.92 -760.38)"/><path class="cls-5" d="M4096.46,2838.53c11.84,10.43,26.12,19.36,42.55,18.63,18.72-.83,37.69-14.72,36.88-35-.62-15.62-13.86-28.38-28.34-32.59-17.8-5.17-36,8-36,26.58,0,25.77,37,29.57,44.5,5.75q-4.05,11.37-18.73,12.93-13.93-4.86-8.49-1.9-5.2-4.17-2.54-1.68-4-5.39-1.87-2.33,2,3.71-.68-3.93-1.42-7.93-1.25-3.9a76.13,76.13,0,0,0,.95,8,18.59,18.59,0,0,1,.07-9.57,16.48,16.48,0,0,1,7.25-10.29,10.6,10.6,0,0,1,6.17-1.45c-1.35,1-7-1.48-1.32.18-2.65-.77-5.29-1.49-7.9-2.39,4.51,1.55-3.1-1.49-4-1.92-10-5-22-3-29,6-6.47,8.29-6.64,21.53,1.74,28.91Z" transform="translate(-389.92 -760.38)"/><path class="cls-5" d="M3450.27,2315.53q-.39,7.72-.8,15.46c-.55,10.65,17.26,10.49,16.72,0q-.41-7.73-.8-15.45c-.5-9.57-14.62-9.54-15.12,0Z" transform="translate(-389.92 -760.38)"/><path class="cls-5" d="M3469.11,2349.06c12.75-30.29,24.72-61.13,38.81-90.82,12-25.24,29.46-48.63,36.67-75.59,8.28-31-39.28-51.8-53.43-21.56-12.87,27.51-15.19,58.55-23.21,87.91-8.47,31-18.72,61.63-28.25,92.34-6,19.21,22.22,24.82,29.41,7.72Z" transform="translate(-389.92 -760.38)"/><path class="cls-5" d="M3573.54,2159.49c36.24,24.74,78.72,41.46,120.78,53.61,38,11,88.06,26.24,125.83,10.62,26.07-10.78,28.64-43.65.48-54.08-34.21-12.67-74.65-3.69-111-6.57-43.65-3.47-84.14-15.53-126.16-26.69-14.42-3.83-21.73,15.08-10,23.11Z" transform="translate(-389.92 -760.38)"/><path class="cls-5" d="M3843.57,2208.78c-11.22,12.31-27.19,19.71-36.29,33.89-8.28,12.9-12,29.75-14.56,44.54-5.34,31-4.78,70.73,18.34,94.2,18.73,19,48.67,3.24,50.79-20.8,1.94-21.91-8.38-43-8.11-65.52.13-11,2.4-21.34,3.59-32.22,1.43-13.2-1.79-27.91,4.91-40.19,6.29-11.52-9.44-24-18.67-13.9Z" transform="translate(-389.92 -760.38)"/><path class="cls-5" d="M3503.86,2155.1c32.67,0,33.68-50.06.68-50.06-32.67,0-33.69,50.06-.68,50.06Z" transform="translate(-389.92 -760.38)"/><path class="cls-5" d="M3510.18,2119.77a1704.6,1704.6,0,0,0-328.53-143.33c-110.75-35-239.61-70.11-356.77-58.31-31.24,3.14-46.32,53.06-8.74,59.42,114,19.28,229.88,18.41,343.75,42,118.26,24.48,231.79,64.32,340.54,116.66,10.84,5.21,20.67-10.21,9.75-16.42Z" transform="translate(-389.92 -760.38)"/><path class="cls-5" d="M2813.19,1873.45l47.94-6.08c8.88,2.32,22-3,23.51-13.22,20.49-138.75,19.6-282.15,30.57-422,5.69-72.58,12.84-145.07,22.11-217.3,9.23-71.85,27.38-143.12,34.15-215.09,3.61-38.34-53.8-41.37-64.69-8.36-21.32,64.66-27.89,136.34-36.84,203.72-9.58,72.13-16,144.54-20.49,217.15-9,143.24-17.08,294.08-2.24,437.07l14.24-18c-20.78,5.36-39.12,15.59-56.8,27.78-8.92,6.15-.88,20.07,8.54,14.33Z" transform="translate(-389.92 -760.38)"/><path class="cls-5" d="M2971.34,1026.35c60.46-45.46,142.26-30.48,211.41-18.22,78.26,13.89,156.39,28.44,234.7,42.08q230.58,40.15,460.25,85.53,229.89,45.18,458.34,97.57,116.67,26.67,232.85,55.43c68.82,17,152.15,53.39,223.21,46.6,31.65-3,43.09-39.14,16.42-58-34.89-24.62-80-31.42-120.8-41.81q-58-14.79-116.16-28.85-121.14-29.49-242.81-56.73-248.28-55.59-498.81-100.23c-159.9-28.63-320.84-53.6-482.13-73-126.31-15.2-280.28-52-388.12,34.89-8.44,6.8,3,21.22,11.65,14.71Z" transform="translate(-389.92 -760.38)"/><path class="cls-5" d="M4826.55,1362.55c-77.42,133.14-116.68,297.74-154.37,445.93-19.2,75.47-35.66,151.69-50.48,228.13q-11.13,57.35-20.78,115c-2.52,15-8.38,102.44-24.07,105.25-30,5.38-30.23,52.93-.53,58.94,76.4,15.46,84.08-72.72,92.43-126.36,14-89.86,30.25-179.32,49.35-268.24s41-177.11,63-265.31c23.44-93.68,56.78-187.47,71-283,2.18-14.71-17.12-24.79-25.54-10.3Z" transform="translate(-389.92 -760.38)"/><path class="cls-5" d="M4515.54,2300.42c-105.61-20.81-214.14-28-320.86-41.25-54.13-6.75-108.22-13.82-162.33-20.68-56.08-7.12-116-20.95-172.3-13.84-24.59,3.11-47,41.56-15.51,54.72,94.78,39.61,217.07,38,318.73,46.59,114.49,9.67,231,22.87,345.94,17.48,23.7-1.11,32.51-37.86,6.33-43Z" transform="translate(-389.92 -760.38)"/><path class="cls-5" d="M3098.69,1184.32c-15.34,98.83-26.75,196.77-49.06,294.5-22.26,97.5-59.39,192.34-78.89,290-6.08,30.43,37.84,52.09,53.13,21.44,44-88.21,62.83-194.66,77.44-291.52,15.31-101.41,25.79-209.31,17.89-311.79-.83-10.78-18.62-14.87-20.51-2.65Z" transform="translate(-389.92 -760.38)"/><path class="cls-5" d="M3010,1821.35c238.26,17.83,464.87,51,691.18,130.48,106.06,37.25,210.82,78.06,315.85,118.07,111.49,42.48,227.63,97.64,344,124.17,34.84,7.94,60.07-41.09,25.67-59.5-102.13-54.65-221.81-88.07-330.47-128-114.7-42.18-229.11-86.16-345.55-123.4-223.47-71.46-465.63-116-700.32-85.09-14.74,1.94-16.05,22.12-.31,23.3Z" transform="translate(-389.92 -760.38)"/><path class="cls-5" d="M4391.34,2166.57c44.5-113,67.08-235.12,88.27-354.35,9.72-54.65,18.46-109.45,25.71-164.49,7.49-56.79,20.69-117.62,12.69-174.6-4.25-30.26-47.88-23.64-55.86.19-17.15,51.25-16.07,111-22.57,164.54-7.6,62.68-15.79,125.32-25.49,187.71-17.47,112.32-42.95,223.81-54.94,336.84-2.09,19.7,26.1,19.62,32.19,4.16Z" transform="translate(-389.92 -760.38)"/><path class="cls-5" d="M3159.86,1193.43c235.52,41.73,473,72.29,709.63,107.33,117,17.33,234.07,34.6,351,52.59,56.85,8.75,113.73,17.28,170.59,26,52.34,8,119.08,7.33,161.08,43.1,25.3,21.55,58.57-5.25,45.53-34.76-16-36.28-55.22-48.8-91.67-55.77-61.95-11.84-124.72-20.49-187-30.25q-189.67-29.7-380.23-54c-257.52-33-516.21-64.59-775.7-75.93-12.36-.54-15.94,19.41-3.19,21.67Z" transform="translate(-389.92 -760.38)"/><path class="cls-5" d="M2682,2546.58c3.14,89.44.37,179.42-5.59,268.7-.78,11.61,8.62,21.88,19.21,24.91,176.55,50.53,365.73,73.66,547.51,97.21q275.52,35.7,553.22,48.35c374.07,16.5,749.93,2.79,1121.63-42.73,62.33-7.63,168.87-.34,179-82,6-48.62-5.12-103.18-8.31-152-3.67-56.25-7.08-112.52-10.61-168.78-1.17-18.6-13.9-30.85-32.44-32.21a3064.41,3064.41,0,0,0-341.8-6.49c-107.5,4.13-224.21,5.57-327.61,37.19-28.54,8.72-24.77,51.74,6.47,51.94,109.77.69,220.28-20.53,330.32-24.67,110.66-4.15,221.32-1.63,331.75,6.39l-32.43-32.21c5.47,86,11,172.06,15.93,258.13.69,12.06,8.63,44.61,2.62,55.15-8.95,15.68-36.84,13-52.74,15q-69,8.86-138.23,16.38-257,28.2-515.68,36.82c-341.15,11.39-683.29-3-1022.46-41.2-198.76-22.39-394-64-591.9-90q9.6,12.45,19.21,24.91c-5.3-89.85-13.58-179.16-22.27-268.73-1.48-15.33-25.31-15.83-24.76,0Z" transform="translate(-389.92 -760.38)"/><path class="cls-5" d="M2680.71,2485.3c10.9,2.63,17.68,8,29.23,10,11.08,1.93,22.37,2.27,33.57,2.82,26.84,1.32,53.38,2.93,80.23,1.68,38.74-1.81,40.09-57.67.81-59.5-25.1-1.18-49.85.18-74.92,1.41-10.78.53-21.4,1-32.13,2.19-14.71,1.59-22.66,7.65-36.52,11-15.27,3.65-15.74,26.66-.27,30.38Z" transform="translate(-389.92 -760.38)"/><path class="cls-5" d="M2830.68,2903.59c-7.15,97.78,16.58,202.16,24.23,299.84,7.34,93.76,12.73,187.71,14.71,281.75s1,188.27-2.65,282.28q-2.78,70.54-7.9,141c-2.83,38.8,5.86,120.23-34.92,142-37.05,19.75-4.33,68.45,31.73,53.29,75.9-31.92,67-148.83,71.36-215.33,7.52-114,10.53-228.36,8.06-342.63-2.39-110.93-8.67-221.9-20.79-332.2-11.38-103.49-16.87-220.43-57.74-316.94-5.75-13.56-25.22-5-26.09,7Z" transform="translate(-389.92 -760.38)"/><path class="cls-5" d="M3156,2980.39c-10.75,106.65,3.1,219.82,7.59,326.82,4.37,104.26,4.64,211.19,19.36,314.57,5,35.21,61,25.32,61.68-8.1,2.33-108.23-11.5-219-20.24-326.83-8.29-102.36-8.15-211.09-30.76-311.4-4.94-22-35.64-14.91-37.63,4.94Z" transform="translate(-389.92 -760.38)"/><path class="cls-5" d="M4876.47,2990.46c-22.64,30.73-20.43,70.44-22.95,107.39-3.27,47.83-5.74,95.72-7.92,143.61-4.06,88.88-7.39,177.81-10.53,266.72l-9.42,266.72c-3.31,93.52-16.24,194.35-4.88,287.24,4,32.66,56.91,47.37,64.06,8.27,16.23-88.72,10.72-184.82,12.88-274.92l6.66-277c2.22-92.32,4.29-184.65,5.55-277,.66-47.86,1-95.75.61-143.62-.33-36.84,4.23-76-16.84-107.6-4.38-6.59-12.81-5.83-17.22.16Z" transform="translate(-389.92 -760.38)"/><path class="cls-5" d="M4555.55,3006.83c-19,109.61-21.92,223.44-28.94,334.33-7.35,115.94-19.47,233.9-16.72,350.1,1.06,45,65.34,43.09,69.77.07,11.58-112.27,9.1-227.3,10.94-340.1,1.85-112.54,8.47-227.95-1.92-340.12-1.6-17.28-29.7-24.16-33.13-4.28Z" transform="translate(-389.92 -760.38)"/><path class="cls-5" d="M2117.83,2524.92c79,69,170.57,125.11,256.39,185.12,79.35,55.48,163.6,133.56,258.29,161.05,90.26,26.21,162.73-25.08,234.48-73.25,94.52-63.46,190.79-125.1,282.68-192.33,33.84-24.76,3.66-78.77-33.35-56-85.5,52.6-168.05,110.48-251.33,166.5-75.48,50.77-149.27,120.86-244.79,78.67-79.48-35.12-151.41-94-223.82-141.52-83-54.45-164.82-115.33-253.21-160.65-19.66-10.08-44,16.13-25.34,32.41Z" transform="translate(-389.92 -760.38)"/><path class="cls-5" d="M2110.47,2424.73c81.51,40.66,166.06,75.87,249.72,111.86,74.62,32.09,150.42,71,228.91,92.61,153.84,42.33,235.28-80.47,365.4-130.06,38.87-14.82,25.06-74.42-16.76-62.52-57.86,16.46-104.31,53.58-153.15,87-66.3,45.41-125.65,62.78-205.2,39.27-155.44-45.94-304.38-113-460.2-158.41-11.83-3.44-20.35,14.42-8.72,20.22Z" transform="translate(-389.92 -760.38)"/><path class="cls-1" d="M932.57,4369.92c32.42-21.8,63.64-37.45,102.73-43.3l-21.72-21.38c-5.34,31.94-17.19,60.76-38.46,85.44-15.64,18.15,3.84,39.77,24.45,30.88q36-15.51,71.72-31.5l-31.7-17.79c1.47,14.37-2.42,23.19-10.66,34.76-14,19.59,15.21,35.53,30.78,22.92,17.58-14.23,24.61-35.49,22.11-57.64-1.88-16.66-16.35-24.81-31.69-17.78q-35.54,16.28-70.84,33l24.44,30.88c25.9-32.31,41-67.27,44.92-108.6,1.13-12.12-12.15-19.17-22.39-16.89-40.32,9-80.22,27.36-109.22,57.41-9.82,10.19,3.2,27.92,15.53,19.62Z" transform="translate(-389.92 -760.38)"/><path class="cls-1" d="M2070.77,4410c10.18-23.42,40-53.36,67.39-34.19,17.26,12.07,18.13,41.43-1.17,51.48l31.56,30.67c9.22-16.41,23.6-20.07,36.81-31.81,10.29-9.14,5.78-29.75-8.57-32-29.67-4.6-54.12,16.73-68.17,41.38-11.82,20.72,11.73,41,31.55,30.66,46-23.93,46.81-95.7,4.19-123.76-47-30.95-111.5,9.54-117,61.46-1.27,12.08,18.56,17.14,23.36,6.08Z" transform="translate(-389.92 -760.38)"/><path class="cls-5" d="M1556,1747c31.45,168.62,123.14,359.62,298.91,414.59,152.24,47.61,352.38-15.45,430.14-160.38,19.41-36.17-30.85-61.16-53.82-30.2-86,115.83-231.29,180.3-373.76,131.76-158.78-54.09-234.92-212.31-282.81-360.77-3.76-11.66-20.88-6.91-18.66,5Z" transform="translate(-389.92 -760.38)"/><path class="cls-5" d="M1666.43,1147.12c64.42-75.56,164.07-125,258.13-152.68,104.19-30.67,206.79-19.26,296.9,42.91,27.77,19.16,60.49-23.27,36.46-46.62-169.83-165-507-46.73-616,138.17-8.77,14.89,12.94,31.75,24.48,18.22Z" transform="translate(-389.92 -760.38)"/><path class="cls-5" d="M1219.29,1652c-50.44-9.52-101-18.11-150.3,1.11-45.55,17.76-78.33,56.38-84.9,105.23C970,1863.28,1089.29,1948,1179.8,1883.18c23-16.48,10.29-61.32-20.73-49.08-60.36,23.82-141.24-14.32-113.83-89.84,22.37-61.65,116-64.39,170.27-66.56,14.18-.57,19.39-22.74,3.78-25.69Z" transform="translate(-389.92 -760.38)"/><path class="cls-2" d="M3324.15,1662.87c75.77,21.2,152.37,38.66,229.12,55.88,68.39,15.34,136.24,31,205.33,10.77,71.12-20.88,138.92-59.31,206.1-90.08,74.35-34.06,151-65.38,223.24-103.69,27.13-14.37,8.51-61.21-21-49.65-138,54.15-266.91,131.13-405.25,184.22-78.13,30-155.37,11.49-234.94-1.88-66.21-11.12-132.44-21.55-199.12-29.4-14.06-1.66-16.68,20.14-3.51,23.83Z" transform="translate(-389.92 -760.38)"/><path class="cls-2" d="M4044.76,1480.36c57,9.11,115.63,7.69,173.05,14.57q-12.71-16.46-25.39-32.93c-17.7,64.22-32.65,142.16-11.9,207.23,8.55,26.81,45.75,20.41,48.39-6.35,6.28-63.47.52-124.17,15-187.37,3.79-16.53-7.69-33.07-25.39-32.94-57.09.42-119.08,1-173.6,19.56-8,2.74-10.46,16.58-.16,18.23Z" transform="translate(-389.92 -760.38)"/></svg>