<?xml version="1.0" encoding="UTF-8"?>
<!DOCTYPE svg  PUBLIC '-//W3C//DTD SVG 20010904//EN'  'http://www.w3.org/TR/2001/REC-SVG-20010904/DTD/svg10.dtd'>
<svg width="99pt" height="32pt" version="1.0" viewBox="0 0 99 32" xmlns="http://www.w3.org/2000/svg">
<metadata>Created by potrace 1.16, written by Peter Selinger 2001-2019</metadata>
<g transform="translate(0 32) scale(.1 -.1)">
<path d="m0 195v-125h24c23 0 24-3 19-35-5-34-5-35 26-35 29 0 31 2 31 35 0 28 4 35 20 35 22 0 27-15 8-23-10-4-10-6 0-6 6-1 12-10 12-21 0-15 7-20 29-20 24 0 28 3 24 20-6 23 12 50 33 50 8 0 14-7 14-16 0-8-4-13-9-9-5 3-12 2-15-3-7-12 31-42 54-42 16 0 20 7 20 35 0 19 5 35 10 35 6 0 10-7 10-15s5-15 10-15c6 0 10 7 10 15s5 15 10 15c6 0 10-16 10-35 0-31 3-35 25-35s25 4 25 35c0 35 22 50 33 23 4-10 6-10 6 0 2 29 21 9 21-23s2-35 30-35c27 0 30 3 25 23-4 15 0 28 10 37 23 19 50 0 50-34-1-22 4-26 27-26 25 0 28 3 28 35 0 19 5 35 10 35 6 0 10-9 10-21 0-27 23-49 53-49 20 0 23 4 19 29-3 23 1 30 17 36 30 9 44-3 39-36-4-27-2-29 27-29 28 0 32 3 28 23-5 27 19 52 42 43 8-3 15-9 14-13-6-39 2-53 32-53 32 0 34 5 14 53-6 15-4 18 11 17 44-5 44-5 44 125v125h-495-495v-125z"/>
<path d="m2 25c0-17 2-22 5-12 2 9 2 23 0 30-3 6-5-1-5-18z"/>
<path d="m541 34c0-11 3-14 6-6 3 7 2 16-1 19-3 4-6-2-5-13z"/>
<path d="m740 30c0-5 5-10 10-10 6 0 10 5 10 10 0 6-4 10-10 10-5 0-10-4-10-10z"/>
<path d="m977 26c-4-10-5-21-2-24 9-9 17 6 13 25-3 17-4 17-11-1z"/>
<path d="m310 10c0-5 5-10 10-10 6 0 10 5 10 10 0 6-4 10-10 10-5 0-10-4-10-10z"/>
</g>
</svg>
